<svg width="760" height="720" viewBox="0 0 760 720" fill="none" xmlns="http://www.w3.org/2000/svg">
<path d="M379.637 25.1409L205.412 270.296L379.637 524.462L547.251 270.296L379.637 25.1409Z" fill="#C148C5" fill-opacity="0.55"/>
<path d="M564.814 57L317 229.79L380.108 525L631 356.96L564.814 57Z" fill="#C148C5" fill-opacity="0.55"/>
<path d="M195.186 57L443 229.79L379.892 525L129 356.96L195.186 57Z" fill="#C148C5" fill-opacity="0.55"/>
<path d="M38.8125 654.062L59.1328 582.625H68.9766L63.2812 610.398L41.4141 685H31.6406L38.8125 654.062ZM17.7891 582.625L33.9609 652.656L38.8125 685H29.1094L4.28906 582.625H17.7891ZM95.2734 652.586L111.094 582.625H124.664L99.9141 685H90.2109L95.2734 652.586ZM70.4531 582.625L90.2109 654.062L97.3828 685H87.6094L66.5156 610.398L60.75 582.625H70.4531ZM151.875 608.922V685H138.797V608.922H151.875ZM137.812 588.742C137.812 586.633 138.445 584.852 139.711 583.398C141.023 581.945 142.945 581.219 145.477 581.219C147.961 581.219 149.859 581.945 151.172 583.398C152.531 584.852 153.211 586.633 153.211 588.742C153.211 590.758 152.531 592.492 151.172 593.945C149.859 595.352 147.961 596.055 145.477 596.055C142.945 596.055 141.023 595.352 139.711 593.945C138.445 592.492 137.812 590.758 137.812 588.742ZM220.711 670.234V577H233.789V685H221.836L220.711 670.234ZM169.523 647.805V646.328C169.523 640.516 170.227 635.242 171.633 630.508C173.086 625.727 175.125 621.625 177.75 618.203C180.422 614.781 183.586 612.156 187.242 610.328C190.945 608.453 195.07 607.516 199.617 607.516C204.398 607.516 208.57 608.359 212.133 610.047C215.742 611.688 218.789 614.102 221.273 617.289C223.805 620.43 225.797 624.227 227.25 628.68C228.703 633.133 229.711 638.172 230.273 643.797V650.266C229.758 655.844 228.75 660.859 227.25 665.312C225.797 669.766 223.805 673.562 221.273 676.703C218.789 679.844 215.742 682.258 212.133 683.945C208.523 685.586 204.305 686.406 199.477 686.406C195.023 686.406 190.945 685.445 187.242 683.523C183.586 681.602 180.422 678.906 177.75 675.438C175.125 671.969 173.086 667.891 171.633 663.203C170.227 658.469 169.523 653.336 169.523 647.805ZM182.602 646.328V647.805C182.602 651.602 182.977 655.164 183.727 658.492C184.523 661.82 185.742 664.75 187.383 667.281C189.023 669.812 191.109 671.805 193.641 673.258C196.172 674.664 199.195 675.367 202.711 675.367C207.023 675.367 210.562 674.453 213.328 672.625C216.141 670.797 218.391 668.383 220.078 665.383C221.766 662.383 223.078 659.125 224.016 655.609V638.664C223.453 636.086 222.633 633.602 221.555 631.211C220.523 628.773 219.164 626.617 217.477 624.742C215.836 622.82 213.797 621.297 211.359 620.172C208.969 619.047 206.133 618.484 202.852 618.484C199.289 618.484 196.219 619.234 193.641 620.734C191.109 622.188 189.023 624.203 187.383 626.781C185.742 629.312 184.523 632.266 183.727 635.641C182.977 638.969 182.602 642.531 182.602 646.328ZM285.609 686.406C280.312 686.406 275.508 685.516 271.195 683.734C266.93 681.906 263.25 679.352 260.156 676.07C257.109 672.789 254.766 668.898 253.125 664.398C251.484 659.898 250.664 654.977 250.664 649.633V646.68C250.664 640.492 251.578 634.984 253.406 630.156C255.234 625.281 257.719 621.156 260.859 617.781C264 614.406 267.562 611.852 271.547 610.117C275.531 608.383 279.656 607.516 283.922 607.516C289.359 607.516 294.047 608.453 297.984 610.328C301.969 612.203 305.227 614.828 307.758 618.203C310.289 621.531 312.164 625.469 313.383 630.016C314.602 634.516 315.211 639.438 315.211 644.781V650.617H258.398V640H302.203V639.016C302.016 635.641 301.312 632.359 300.094 629.172C298.922 625.984 297.047 623.359 294.469 621.297C291.891 619.234 288.375 618.203 283.922 618.203C280.969 618.203 278.25 618.836 275.766 620.102C273.281 621.32 271.148 623.148 269.367 625.586C267.586 628.023 266.203 631 265.219 634.516C264.234 638.031 263.742 642.086 263.742 646.68V649.633C263.742 653.242 264.234 656.641 265.219 659.828C266.25 662.969 267.727 665.734 269.648 668.125C271.617 670.516 273.984 672.391 276.75 673.75C279.562 675.109 282.75 675.789 286.312 675.789C290.906 675.789 294.797 674.852 297.984 672.977C301.172 671.102 303.961 668.594 306.352 665.453L314.227 671.711C312.586 674.195 310.5 676.562 307.969 678.812C305.438 681.062 302.32 682.891 298.617 684.297C294.961 685.703 290.625 686.406 285.609 686.406ZM374.695 664.82C374.695 662.945 374.273 661.211 373.43 659.617C372.633 657.977 370.969 656.5 368.438 655.188C365.953 653.828 362.203 652.656 357.188 651.672C352.969 650.781 349.148 649.727 345.727 648.508C342.352 647.289 339.469 645.812 337.078 644.078C334.734 642.344 332.93 640.305 331.664 637.961C330.398 635.617 329.766 632.875 329.766 629.734C329.766 626.734 330.422 623.898 331.734 621.227C333.094 618.555 334.992 616.188 337.43 614.125C339.914 612.062 342.891 610.445 346.359 609.273C349.828 608.102 353.695 607.516 357.961 607.516C364.055 607.516 369.258 608.594 373.57 610.75C377.883 612.906 381.188 615.789 383.484 619.398C385.781 622.961 386.93 626.922 386.93 631.281H373.922C373.922 629.172 373.289 627.133 372.023 625.164C370.805 623.148 369 621.484 366.609 620.172C364.266 618.859 361.383 618.203 357.961 618.203C354.352 618.203 351.422 618.766 349.172 619.891C346.969 620.969 345.352 622.352 344.32 624.039C343.336 625.727 342.844 627.508 342.844 629.383C342.844 630.789 343.078 632.055 343.547 633.18C344.062 634.258 344.953 635.266 346.219 636.203C347.484 637.094 349.266 637.938 351.562 638.734C353.859 639.531 356.789 640.328 360.352 641.125C366.586 642.531 371.719 644.219 375.75 646.188C379.781 648.156 382.781 650.57 384.75 653.43C386.719 656.289 387.703 659.758 387.703 663.836C387.703 667.164 387 670.211 385.594 672.977C384.234 675.742 382.242 678.133 379.617 680.148C377.039 682.117 373.945 683.664 370.336 684.789C366.773 685.867 362.766 686.406 358.312 686.406C351.609 686.406 345.938 685.211 341.297 682.82C336.656 680.43 333.141 677.336 330.75 673.539C328.359 669.742 327.164 665.734 327.164 661.516H340.242C340.43 665.078 341.461 667.914 343.336 670.023C345.211 672.086 347.508 673.562 350.227 674.453C352.945 675.297 355.641 675.719 358.312 675.719C361.875 675.719 364.852 675.25 367.242 674.312C369.68 673.375 371.531 672.086 372.797 670.445C374.062 668.805 374.695 666.93 374.695 664.82ZM417.797 623.547V714.25H404.719V608.922H416.672L417.797 623.547ZM469.055 646.328V647.805C469.055 653.336 468.398 658.469 467.086 663.203C465.773 667.891 463.852 671.969 461.32 675.438C458.836 678.906 455.766 681.602 452.109 683.523C448.453 685.445 444.258 686.406 439.523 686.406C434.695 686.406 430.43 685.609 426.727 684.016C423.023 682.422 419.883 680.102 417.305 677.055C414.727 674.008 412.664 670.352 411.117 666.086C409.617 661.82 408.586 657.016 408.023 651.672V643.797C408.586 638.172 409.641 633.133 411.188 628.68C412.734 624.227 414.773 620.43 417.305 617.289C419.883 614.102 423 611.688 426.656 610.047C430.312 608.359 434.531 607.516 439.312 607.516C444.094 607.516 448.336 608.453 452.039 610.328C455.742 612.156 458.859 614.781 461.391 618.203C463.922 621.625 465.82 625.727 467.086 630.508C468.398 635.242 469.055 640.516 469.055 646.328ZM455.977 647.805V646.328C455.977 642.531 455.578 638.969 454.781 635.641C453.984 632.266 452.742 629.312 451.055 626.781C449.414 624.203 447.305 622.188 444.727 620.734C442.148 619.234 439.078 618.484 435.516 618.484C432.234 618.484 429.375 619.047 426.938 620.172C424.547 621.297 422.508 622.82 420.82 624.742C419.133 626.617 417.75 628.773 416.672 631.211C415.641 633.602 414.867 636.086 414.352 638.664V656.875C415.289 660.156 416.602 663.25 418.289 666.156C419.977 669.016 422.227 671.336 425.039 673.117C427.852 674.852 431.391 675.719 435.656 675.719C439.172 675.719 442.195 674.992 444.727 673.539C447.305 672.039 449.414 670 451.055 667.422C452.742 664.844 453.984 661.891 454.781 658.562C455.578 655.188 455.977 651.602 455.977 647.805ZM498.656 620.875V685H485.648V608.922H498.305L498.656 620.875ZM522.422 608.5L522.352 620.594C521.273 620.359 520.242 620.219 519.258 620.172C518.32 620.078 517.242 620.031 516.023 620.031C513.023 620.031 510.375 620.5 508.078 621.438C505.781 622.375 503.836 623.688 502.242 625.375C500.648 627.062 499.383 629.078 498.445 631.422C497.555 633.719 496.969 636.25 496.688 639.016L493.031 641.125C493.031 636.531 493.477 632.219 494.367 628.188C495.305 624.156 496.734 620.594 498.656 617.5C500.578 614.359 503.016 611.922 505.969 610.188C508.969 608.406 512.531 607.516 516.656 607.516C517.594 607.516 518.672 607.633 519.891 607.867C521.109 608.055 521.953 608.266 522.422 608.5ZM564.609 686.406C559.312 686.406 554.508 685.516 550.195 683.734C545.93 681.906 542.25 679.352 539.156 676.07C536.109 672.789 533.766 668.898 532.125 664.398C530.484 659.898 529.664 654.977 529.664 649.633V646.68C529.664 640.492 530.578 634.984 532.406 630.156C534.234 625.281 536.719 621.156 539.859 617.781C543 614.406 546.562 611.852 550.547 610.117C554.531 608.383 558.656 607.516 562.922 607.516C568.359 607.516 573.047 608.453 576.984 610.328C580.969 612.203 584.227 614.828 586.758 618.203C589.289 621.531 591.164 625.469 592.383 630.016C593.602 634.516 594.211 639.438 594.211 644.781V650.617H537.398V640H581.203V639.016C581.016 635.641 580.312 632.359 579.094 629.172C577.922 625.984 576.047 623.359 573.469 621.297C570.891 619.234 567.375 618.203 562.922 618.203C559.969 618.203 557.25 618.836 554.766 620.102C552.281 621.32 550.148 623.148 548.367 625.586C546.586 628.023 545.203 631 544.219 634.516C543.234 638.031 542.742 642.086 542.742 646.68V649.633C542.742 653.242 543.234 656.641 544.219 659.828C545.25 662.969 546.727 665.734 548.648 668.125C550.617 670.516 552.984 672.391 555.75 673.75C558.562 675.109 561.75 675.789 565.312 675.789C569.906 675.789 573.797 674.852 576.984 672.977C580.172 671.102 582.961 668.594 585.352 665.453L593.227 671.711C591.586 674.195 589.5 676.562 586.969 678.812C584.438 681.062 581.32 682.891 577.617 684.297C573.961 685.703 569.625 686.406 564.609 686.406ZM654.258 671.992V632.828C654.258 629.828 653.648 627.227 652.43 625.023C651.258 622.773 649.477 621.039 647.086 619.82C644.695 618.602 641.742 617.992 638.227 617.992C634.945 617.992 632.062 618.555 629.578 619.68C627.141 620.805 625.219 622.281 623.812 624.109C622.453 625.938 621.773 627.906 621.773 630.016H608.766C608.766 627.297 609.469 624.602 610.875 621.93C612.281 619.258 614.297 616.844 616.922 614.688C619.594 612.484 622.781 610.75 626.484 609.484C630.234 608.172 634.406 607.516 639 607.516C644.531 607.516 649.406 608.453 653.625 610.328C657.891 612.203 661.219 615.039 663.609 618.836C666.047 622.586 667.266 627.297 667.266 632.969V668.406C667.266 670.938 667.477 673.633 667.898 676.492C668.367 679.352 669.047 681.812 669.938 683.875V685H656.367C655.711 683.5 655.195 681.508 654.82 679.023C654.445 676.492 654.258 674.148 654.258 671.992ZM656.508 638.875L656.648 648.016H643.5C639.797 648.016 636.492 648.32 633.586 648.93C630.68 649.492 628.242 650.359 626.273 651.531C624.305 652.703 622.805 654.18 621.773 655.961C620.742 657.695 620.227 659.734 620.227 662.078C620.227 664.469 620.766 666.648 621.844 668.617C622.922 670.586 624.539 672.156 626.695 673.328C628.898 674.453 631.594 675.016 634.781 675.016C638.766 675.016 642.281 674.172 645.328 672.484C648.375 670.797 650.789 668.734 652.57 666.297C654.398 663.859 655.383 661.492 655.523 659.195L661.078 665.453C660.75 667.422 659.859 669.602 658.406 671.992C656.953 674.383 655.008 676.68 652.57 678.883C650.18 681.039 647.32 682.844 643.992 684.297C640.711 685.703 637.008 686.406 632.883 686.406C627.727 686.406 623.203 685.398 619.312 683.383C615.469 681.367 612.469 678.672 610.312 675.297C608.203 671.875 607.148 668.055 607.148 663.836C607.148 659.758 607.945 656.172 609.539 653.078C611.133 649.938 613.43 647.336 616.43 645.273C619.43 643.164 623.039 641.57 627.258 640.492C631.477 639.414 636.188 638.875 641.391 638.875H656.508ZM735.68 670.234V577H748.758V685H736.805L735.68 670.234ZM684.492 647.805V646.328C684.492 640.516 685.195 635.242 686.602 630.508C688.055 625.727 690.094 621.625 692.719 618.203C695.391 614.781 698.555 612.156 702.211 610.328C705.914 608.453 710.039 607.516 714.586 607.516C719.367 607.516 723.539 608.359 727.102 610.047C730.711 611.688 733.758 614.102 736.242 617.289C738.773 620.43 740.766 624.227 742.219 628.68C743.672 633.133 744.68 638.172 745.242 643.797V650.266C744.727 655.844 743.719 660.859 742.219 665.312C740.766 669.766 738.773 673.562 736.242 676.703C733.758 679.844 730.711 682.258 727.102 683.945C723.492 685.586 719.273 686.406 714.445 686.406C709.992 686.406 705.914 685.445 702.211 683.523C698.555 681.602 695.391 678.906 692.719 675.438C690.094 671.969 688.055 667.891 686.602 663.203C685.195 658.469 684.492 653.336 684.492 647.805ZM697.57 646.328V647.805C697.57 651.602 697.945 655.164 698.695 658.492C699.492 661.82 700.711 664.75 702.352 667.281C703.992 669.812 706.078 671.805 708.609 673.258C711.141 674.664 714.164 675.367 717.68 675.367C721.992 675.367 725.531 674.453 728.297 672.625C731.109 670.797 733.359 668.383 735.047 665.383C736.734 662.383 738.047 659.125 738.984 655.609V638.664C738.422 636.086 737.602 633.602 736.523 631.211C735.492 628.773 734.133 626.617 732.445 624.742C730.805 622.82 728.766 621.297 726.328 620.172C723.938 619.047 721.102 618.484 717.82 618.484C714.258 618.484 711.188 619.234 708.609 620.734C706.078 622.188 703.992 624.203 702.352 626.781C700.711 629.312 699.492 632.266 698.695 635.641C697.945 638.969 697.57 642.531 697.57 646.328Z" fill="#C148C5"/>
</svg>
