<svg version="1.2" xmlns="http://www.w3.org/2000/svg" viewBox="0 0 774 932" width="774" height="932">
	<title>cake-svg</title>
	<defs>
		<radialGradient id="g1" cx="111.3" cy="728.5" r="678.5" gradientUnits="userSpaceOnUse">
			<stop offset="0" stop-color="#d4b18e"/>
			<stop offset="1" stop-color="#d7a763"/>
		</radialGradient>
		<linearGradient id="g2" x1="222.1" y1="640.2" x2="572.1" y2="674" gradientUnits="userSpaceOnUse">
			<stop offset="0" stop-color="#8e5d3f"/>
			<stop offset="1" stop-color="#552f1c"/>
		</linearGradient>
		<linearGradient id="g3" x1="47.7" y1="619.3" x2="786.5" y2="619.3" gradientUnits="userSpaceOnUse">
			<stop offset="0" stop-color="#fff5fe"/>
			<stop offset="1" stop-color="#fdccfc"/>
		</linearGradient>
		<linearGradient id="g4" x1="238.3" y1="754.3" x2="540.8" y2="785" gradientUnits="userSpaceOnUse">
			<stop offset="0" stop-color="#8e5d3f"/>
			<stop offset="1" stop-color="#552f1c"/>
		</linearGradient>
		<linearGradient id="g5" x1="67" y1="746.4" x2="687.1" y2="746.4" gradientUnits="userSpaceOnUse">
			<stop offset="0" stop-color="#fff5fe"/>
			<stop offset="1" stop-color="#fdccfc"/>
		</linearGradient>
		<linearGradient id="g6" x1="116.4" y1="321.5" x2="750.2" y2="542.2" gradientUnits="userSpaceOnUse">
			<stop offset="0" stop-color="#3d150b"/>
			<stop offset="1" stop-color="#340d07"/>
		</linearGradient>
		<linearGradient id="g7" x1="381.7" y1="398.2" x2="443.1" y2="398.2" gradientUnits="userSpaceOnUse">
			<stop offset=".1" stop-color="#dd76cf"/>
			<stop offset="1" stop-color="#ca51ba"/>
		</linearGradient>
		<linearGradient id="g8" x1="93.1" y1="544" x2="687.3" y2="544" gradientUnits="userSpaceOnUse">
			<stop offset=".2" stop-color="#c657b8"/>
			<stop offset=".3" stop-color="#b4349d"/>
		</linearGradient>
		<radialGradient id="g9" cx="-710.7" cy="-604.9" r="1661.9" gradientUnits="userSpaceOnUse">
			<stop offset=".7" stop-color="#f6d4f8"/>
			<stop offset="1" stop-color="#e37ed3"/>
		</radialGradient>
		<radialGradient id="g10" cx="347.6" cy="-839.9" r="1466.3" gradientUnits="userSpaceOnUse">
			<stop offset=".9" stop-color="#f8abef"/>
			<stop offset="1" stop-color="#e37ed3"/>
		</radialGradient>
		<radialGradient id="g11" cx="644.8" cy="607.6" r="94.3" gradientUnits="userSpaceOnUse">
			<stop offset=".5" stop-color="#ca51ba"/>
			<stop offset="1" stop-color="#dd76cf"/>
		</radialGradient>
		<radialGradient id="g12" cx="558.7" cy="609.4" r="77.1" gradientUnits="userSpaceOnUse">
			<stop offset=".6" stop-color="#ca51ba"/>
			<stop offset="1" stop-color="#dd76cf"/>
		</radialGradient>
		<radialGradient id="g13" cx="156.4" cy="603.5" r="92.6" gradientUnits="userSpaceOnUse">
			<stop offset=".5" stop-color="#dd76cf"/>
			<stop offset="1" stop-color="#f8abef"/>
		</radialGradient>
		<radialGradient id="g14" cx="331.9" cy="595.4" r="129" gradientUnits="userSpaceOnUse">
			<stop offset=".5" stop-color="#dd76cf"/>
			<stop offset="1" stop-color="#f8abef"/>
		</radialGradient>
		<radialGradient id="g15" cx="205" cy="502.5" r="107.9" gradientUnits="userSpaceOnUse">
			<stop offset=".7" stop-color="#dd76cf"/>
			<stop offset="1" stop-color="#f8abef"/>
		</radialGradient>
		<linearGradient id="g16" x1="617.6" y1="250.4" x2="656.5" y2="256" gradientUnits="userSpaceOnUse">
			<stop offset=".2" stop-color="#57c6b5"/>
			<stop offset=".3" stop-color="#34b4a7"/>
		</linearGradient>
		<radialGradient id="g17" cx="383.3" cy="77" r="57.5" gradientUnits="userSpaceOnUse">
			<stop offset=".2" stop-color="#ffc635"/>
			<stop offset=".5" stop-color="#ff7935"/>
		</radialGradient>
		<linearGradient id="g18" x1="397.3" y1="126.6" x2="407.8" y2="126.6" gradientUnits="userSpaceOnUse">
			<stop offset="0" stop-color="#3d150b"/>
			<stop offset="1" stop-color="#340d07"/>
		</linearGradient>
	</defs>
	<style>
		.s0 { fill: url(#g1) } 
		.s1 { fill: url(#g2) } 
		.s2 { fill: url(#g3) } 
		.s3 { fill: url(#g4) } 
		.s4 { fill: url(#g5) } 
		.s5 { fill: url(#g6) } 
		.s6 { fill: url(#g7) } 
		.s7 { fill: url(#g8) } 
		.s8 { fill: url(#g9) } 
		.s9 { fill: url(#g10) } 
		.s10 { fill: url(#g11) } 
		.s11 { fill: url(#g12) } 
		.s12 { fill: url(#g13) } 
		.s13 { fill: url(#g14) } 
		.s14 { fill: url(#g15) } 
		.s15 { fill: #b4349d } 
		.s16 { fill: #e51a4f } 
		.s17 { fill: #d3114d } 
		.s18 { fill: #ff3e6a } 
		.s19 { fill: #ff80a1 } 
		.s20 { fill: #dd76cf } 
		.s21 { fill: #e2ace1 } 
		.s22 { fill: #fcdefa } 
		.s23 { fill: #fff5fe } 
		.s24 { fill: #fffafe } 
		.s25 { fill: #2c8cff } 
		.s26 { fill: #92c8fc } 
		.s27 { fill: #ff7935 } 
		.s28 { opacity: .5;fill: #ffa98d } 
		.s29 { fill: #ffa98d } 
		.s30 { fill: #ff4d36 } 
		.s31 { fill: #ff357a } 
		.s32 { opacity: .5;fill: #ff8dcd } 
		.s33 { fill: #ff8dcd } 
		.s34 { fill: url(#g16) } 
		.s35 { fill: #bef3e6 } 
		.s36 { fill: #355eff } 
		.s37 { opacity: .5;fill: #8dbaff } 
		.s38 { fill: #8dbaff } 
		.s39 { fill: #234fdb } 
		.s40 { fill: url(#g17) } 
		.s41 { opacity: .4;mix-blend-mode: overlay;fill: #ffffff } 
		.s42 { fill: #f5d1f7 } 
		.s43 { fill: #ffc635 } 
		.s44 { opacity: .5;fill: #ffffff } 
		.s45 { opacity: .1;fill: url(#g18) } 
		.s46 { fill: #180a19 } 
		.s47 { fill: #1290dd } 
		.s48 { fill: #0a87c6 } 
		.s49 { fill: #30c0fd } 
		.s50 { fill: #5fd6ff } 
		.s51 { fill: #dd4b12 } 
		.s52 { fill: #c63c0a } 
		.s53 { fill: #fd6330 } 
		.s54 { fill: #ff845f } 
		.s55 { fill: #dd1292 } 
		.s56 { fill: #c60a87 } 
		.s57 { fill: #fd30c1 } 
		.s58 { fill: #ff5fd7 } 
		.s59 { fill: #12dd7d } 
		.s60 { fill: #0ac666 } 
		.s61 { fill: #30fd8b } 
		.s62 { fill: #5fff9f } 
		.s63 { fill: #1297dd } 
		.s64 { fill: #0a8cc6 } 
		.s65 { fill: #30c8fd } 
		.s66 { fill: #5fdcff } 
		.s67 { fill: #c054dd } 
		.s68 { fill: #a645c6 } 
		.s69 { fill: #d77bfd } 
		.s70 { fill: #e3abff } 
		.s71 { fill: #ddb41f } 
		.s72 { fill: #c69e15 } 
		.s73 { fill: #fdd03f } 
		.s74 { fill: #ffdb6e } 
		.s75 { opacity: .5;fill: #ffd78d } 
		.s76 { fill: #ffd78d } 
		.s77 { fill: #ffa536 } 
	</style>
	<g id="layer">
		<g id="&lt;Group&gt;">
			<g id="&lt;Group&gt;">
				<path id="&lt;Path&gt;" class="s0" d="m664.5 852.2c-6.2 33.9-141.6 72.3-293.3 72.3c-151.7 0-276.3-38.4-282.4-72.3c-1.6-8.8-62.6-265.1-60.2-310.1c11-58 201.8-27.9 341.5-27.9c145.1 0 342.2-45 354.5 30.8c5.1 31.5-58.7 299.4-60.1 307.2z" />
				<path id="&lt;Path&gt;" class="s1" d="m311.6 790.9c-14.9-0.7-30-0.5-44.9-3.2c-14.4-2.6-28.5-6.7-43.1-7.9c-15.1-1.2-29.5-1.8-44.5-7c-14.2-4.9-27.9-11.1-42.5-14.6c-20.3-4.9-40.7-12.6-59.7-25.3c-6.3-4.2-14.2-8.1-17.7-15.1c-2.3-4.6-5.1-26.6-7.8-29.6c35.6 38.6 163.2 48.4 319 48.4c156.9 0 271.3-20.1 329.7-44.4c-0.3 0.2-3.8 22.1-4.4 24.2c-2.1 6.9-3.4 9.7-9.1 14.4c-16 13.4-39.8 20.7-57.7 25c-18.5 4.5-36.7 9.4-55.2 11.5c-6.5 0.7-11.6 3.4-17.9 4.9c-9.9 2.4-20.3 1.2-30.3 2.4c-14.3 1.7-28.9 7.5-43 10.5c-20 4.1-40.5 3.7-60.5 3.6c-17.3 0-34.4 0.8-51.5 1.6c-19.5 0.8-39.1 1.6-58.9 0.6z" />
				<path id="&lt;Path&gt;" class="s2" d="m326.6 761.9c-30.3-0.1-59.9-6.4-90.3-8.4c-24.6-1.6-47-2.7-71.7-9.9c-19.9-5.8-38.7-12.6-58.5-20.9c-15.6-6.6-35.7-11.2-48.9-25.8c-14-15.6-16.4-52.7-17.2-71.7c0.4 8.3 38.8 31.6 44.4 33.1c13.2 3.4 26.3 5.4 39.2 12.3c12.2 6.5 23.2 14.6 36 18.1c11.9 3.3 24 1.5 35.8 1.8c17.3 0.4 34.5 9.9 52.1 11.7c21.7 2.1 42.7 8.2 64.4 9.4c25.9 1.4 51.6 0.8 77.4 1.8c8 0.4 15.9 2.9 23.9 2c14.9-1.8 29.1-6 44.1-7.4c22.1-2 44.3-4.6 66.8-7.3c35.7-4.4 74.7-11.3 110.7-22.9c15.3-4.9 26.3-16.3 40.5-24.6c13.3-7.7 25.6-10.9 37.6-24.1c-2.7 21.4-4.9 38.2-12.8 63.1c-4.2 13.5-37.8 27-48 30.9c-20.3 7.8-40.8 12.4-61.1 17.4c-14.4 3.7-29.3 2.3-43.8 6.2c-27.3 7.4-55.3 14.6-82.7 16.8c-31.4 2.5-62.7-1.1-94.1-1.4c-14.6-0.1-29.1-0.2-43.8-0.2z" />
				<path id="&lt;Path&gt;" class="s3" d="m316.4 893.7c-13.9-0.6-27.9-0.4-41.8-2.8c-13.4-2.3-26.5-5.8-40.1-6.8c-14.1-1.1-27.5-1.6-41.4-6.2c-13.2-4.3-25.9-9.7-39.5-12.7c-18.9-4.3-37.7-11-55.3-22.1c-5.8-3.6-13.1-7.1-16.2-13.2c-2.1-3.9-0.7-16.8-3.1-19.4c32.4 33.3 147.4 35.8 292.2 35.8c146 0 251.2-20.5 305.3-41.7c-0.3 0.1-5.7 24-5.1 22.2c1.5-4.7-5.7 14.1-6.1 14.5c-14.7 11.6-36.8 18-53.5 21.8c-17.2 3.9-34.1 8.1-51.3 10c-6 0.6-10.7 3-16.6 4.3c-9.2 2.1-18.9 1-28.2 2.1c-13.3 1.5-26.8 6.6-40 9.1c-18.7 3.6-37.7 3.3-56.4 3.2c-16.1 0-32 0.7-48 1.4c-18.2 0.7-36.4 1.4-54.9 0.5z" />
				<path id="&lt;Path&gt;" class="s4" d="m330.4 868.4c-28.1-0.1-55.7-5.6-83.9-7.3c-22.9-1.4-43.8-2.4-66.7-8.7c-18.4-5.1-35.9-11-54.2-18.2c-14.4-5.7-33.1-9.8-45.1-22.4c-12.9-13.5-13.1-41.1-13.5-57.4c0.2 7.1 34 22.6 39.1 23.9c12.2 3 24.4 4.7 36.2 10.7c11.3 5.6 21.5 12.6 33.3 15.7c11.1 2.8 22.3 1.3 33.3 1.5c16 0.4 31.9 8.7 48.2 10.1c20.2 1.9 39.7 7.2 59.8 8.3c24.1 1.2 47.9 0.7 72 1.6c7.4 0.2 14.7 2.4 22.1 1.6c13.9-1.5 27-5.1 41-6.4c20.6-1.8 41.2-4 62.1-6.3c33-3.8 69.1-9.9 102.5-19.9c14.2-4.2 24.2-14.1 37.3-21.3c12.2-6.7 22.2-10.2 33.2-21.6c-2.2 18.5-3.6 30.7-10.6 52.3c-3.9 11.8-34 26.5-43.4 30c-18.8 6.8-37.8 10.7-56.6 15.1c-13.5 3.2-27.3 2-40.7 5.4c-25.4 6.5-51.4 12.8-76.9 14.7c-29.3 2.2-58.4-1-87.7-1.2c-13.5-0.1-27.1-0.2-40.8-0.2z" />
			</g>
		</g>
		<g id="&lt;Group&gt;">
			<g id="&lt;Group&gt;">
				<g id="&lt;Group&gt;">
					<g id="&lt;Group&gt;">
						<g id="&lt;Group&gt;">
							<g id="&lt;Group&gt;" style="opacity: .2">
								<path id="&lt;Path&gt;" class="s5" d="m690.1 670.4c2.3-11.4 11.9-54.9 14.9-66.2c2.3-8.9-0.8-17.5-7.1-6.9c-5.1 8.6-10.4 19.6-20.7 13.9c-7.1-3.9-14.3 32.1-18 48.7c-2.1 9.4-4.1 29.5-3.2 38.4c1.6 16.7-1.4 44.9-22.1 52.1c-10.6 3.7-21.1 0.2-28.4-9.1c-7.5-9.6-11.6-22.5-17.9-32.9c-8.4-13.7-20.5 7.2-32.9 6.5c-26.4-1.7-7.5-118.5-38.8-112.4c-11.3 2.3-21 41.8-30.3 47.8c-11.2 7.3-15.7 3.4-24.8-3.5c-26.3-20.2-28.4 51.2-49.6 45.6c-6.4-1.6-6.7-8.4-9.2-13.7c-3.4-6.9-10.5-12.8-18.2-9.3c-8.7 3.9-7 13.5-7 21.4c-0.2 19.5 6.5 47.4-6 63.2c-9.8 12.6-32.6 9.6-44 0.6c-13.3-10.3-15.1-29.9-16-45.8c-0.9-16.1-4.2-60.8-12.9-75.9c-7.1-12.3-14.4-29.8-30.5-29.6c-8.1 0-11 8.1-15 14.1c-9.6 14.4-27.2 32.3-46.1 19.8c-5.5-3.7-5.4-10.1-12.1-12.2c-11.2-3.4-10.6 67.7-12.2 76c-2.1 10.8-4.9 26.1-15.4 30.6c-38.7 16.9-42.3-104.3-59.9-115.2c-9.4-5.8-13.9-4.7-23.3-9.6c-5.8-3-12.6-22.9-17.8-22c-7.3 1.4 12.9 128.2 13.6 132.8c1.5 9.1 3.7 23.7 1 31.9c-2.1 6.8-9 8.6-12.7 0.3c-3.5-7.6-3.8-17.5-5.9-25.6c-4.9-19.3-23.9-145.3-26.6-167.4c0.6-4.7 1.9-9 4.5-12.6c7.2-10.4 42.3-16.4 56-20.7c23-7.2 46-12.7 71-15.6q50.3-6 101.1-9.3c35.9 1.5 71.9 2.8 105.3 2.8c32 0 66.2-1.7 100.4-3.8q16.2 1 32.3 2.5c58.7 5.5 115 9.7 169 26.3c12.9 4 32.3 5.6 41.7 14.1c2.7 2.4 6.7 2.8 9.1 5.4c2.9 3.1-3.4 26.2-4.3 31c-2 10.4-4.4 20.8-6.6 31.1c-3.3 15.3-8.1 59.5-12.6 78.4c-0.7 2.9-5.4 5.7-7.7 5.3c-8.3-1.5-5.3-15.6-4.1-21.3z" />
							</g>
							<path id="&lt;Path&gt;" class="s6" d="m751.4 472.2c12.1 21.2 4.7 52.2-9 84.4c-4.8 18.9-30 74.7-27.6 92.1c0.9 6.4 5.8 16.5 0.6 23.2c-4.5 5.8-12.1 5.1-15.7 0.5c-8.4-10.7 22.3-104.3 5.3-104.6c-8.8-0.2-8.1 10.9-9.6 16.6c-1.5 5.6-3.8 16.2-11.4 16.4c-7.9 0.3-5.8-9.4-7.3-15.2c-6.4-25.6-20.2 62.1-22 73.8c-2.8 18.7 1.5 41-7.5 58c-8.4 15.9-23.2 22.7-37 13.5c-6.5-4.3-10.5-10.5-12.7-18.1c-1.8-6-1.8-18.6-7.6-22.4c-7.6-4.9-15.9 3-23.4 6c-32 12.7-21.7-21.9-23-40.9c-1.3-18.7-15.3-82.5-31.3-74.6c-17 8.4-28.3 63-49.3 57.8c-7-1.8-13.8-10.6-22-8.2c-16 4.8-6.7 35.9-26.6 36.2c-15.2 0.2-21.8-47.4-37.3-18.8c-6.3 11.5-2.2 26.5-1.3 38.5c1 15.1 1.8 33.5-4.1 47.1c-11.3 26.2-40.5 17-53.6-2.7c-16.7-25.3 2.6-91.4-19.2-118.8c-10.4-13-22.9-30-40.6-25.5c-12.7 3.3-19.1 16.6-30.2 22.3c-14.6 7.5-24.9-3-39.2-2c-9.7 0.7-13.4 74.7-14.3 82.8c-1.8 14.5-3.9 44.9-28.1 29.8c-18.4-11.5-11.1-107.8-32-118.7c-9.3-4.9-19.7 3.7-29-4c-8.8-7.2-7-22.9-16.9-29.7c-20.1-13.7 0.5 132.8 1.5 141.4c1 8.7 8.9 53.9-11.8 35c-7.7-7-4.6-16.7-3.3-24.5c6.2-35.5-71.9-213.1-36.5-253c19.2-20.9 51.9-14.7 65.9-20.9c23.5-10.3 47.3-18.2 73.2-22.5c71.5-11.7 144.1-18.5 217.6-18.5c45.7 0 90.8 1.4 136 7.3c61.1 8 119.5 14 174.9 38c13.2 5.7 33.3 8.1 42.5 20.2c3.4 4.3 21.4-4.6 22.9 2.7z" />
							<path id="&lt;Path&gt;" class="s7" d="m716.4 671.1c-3.2 8-15.5 5.8-17.8 0.8c-6.7-14.2 23.4-103.8 6.4-104.1c-8.8-0.2-8.1 10.9-9.6 16.6c-1.5 5.6-3.8 16.2-11.4 16.4c-7.9 0.3-5.8-9.4-7.3-15.2c-6.4-25.6-20.2 62.1-22 73.8c-2.8 18.7 1.5 41-7.5 58c-8.4 15.9-23.2 22.7-37 13.5c-6.5-4.3-10.5-10.5-12.7-18.1c-1.8-6-1.8-18.6-7.6-22.4c-7.6-4.9-15.9 3-23.4 6c-31.9 12.6-21.7-21-23-40.9c-1.3-18.7-15.3-82.5-31.3-74.6c-17 8.4-28.3 63-49.3 57.8c-7-1.8-13.8-10.6-22-8.2c-16 4.8-6.7 35.9-26.6 36.2c-15.2 0.2-21.8-47.4-37.3-18.8c-6.3 11.5-2.2 26.5-1.3 38.5c1 15.1 1.8 33.5-4.1 47.1c-11.3 26.2-40.5 17-53.6-2.7c-16.7-25.3 2.6-91.4-19.2-118.8c-10.4-13-22.9-30-40.6-25.5c-12.7 3.3-19.1 16.6-30.2 22.3c-14.6 7.5-24.9-3-39.2-2c-9.7 0.7-13.4 74.7-14.3 82.8c-1.8 14.5-3.9 44.9-28.1 29.8c-18.4-11.5-11.1-107.8-32-118.7c-9.3-4.9-19.7 3.7-29-4c-8.8-7.2-7-22.9-16.9-29.7c-20.1-13.7 0.5 132.8 1.5 141.4c1 8.7 8.9 53.9-11.8 35c-1-0.9-1.8-1.9-2.6-2.9c2.4 3.4 9.1-0.4 10.3-2.1c2.1-3.2 2.6-11.3 3.2-15.3c1.8-12.1-28.7-168.3-11.1-173.3c8.8-2.4 16.1 7.4 19.8 15.2c3.8 8 5 18.6 11.4 24.9c11.6 11.5 30.3-11.7 38.8 9.9c3.6 9 5.8 81.7 9 90.3c6.1 16.1 21.6 18.5 29 4.4c5.3-10.1 6.8-88.5 9.6-100.6c1.3-5.3-0.9-14.5 3.7-17.5c6.2-4.1 8.2 2.4 11.4 8.2c5.5 10 14.2 20.5 25.8 20.2c15.8-0.3 24.2-11.6 33.3-23.5c9.5-12.4 26.7-23.2 41.5-11.2c8.6 7.1 13 15.6 14.8 26.7c4.1 25.2 9.9 78.4 16.2 101.5c4.2 15.3 18.7 32 36 24.7c11.9-5.1 12.9-22.3 13.3-33.8c0.2-6.6-3.6-93.3 23.1-72.2c9.2 7.3 2.9 26.4 10.7 35c11.5 12.8 19.9-11.8 23.6-19.7c7.3-15.4 17.5-15.9 29.5-6.8c24.6 18.6 37.2-58 58.4-64.9c21.5-7 31.1 88 34.3 103c2.3 10.8 3.5 28.3 19.6 24.3c10.8-2.6 22.1-32.7 27.5-13.9c3.5 12.2 0.2 27.5 10.4 36.2c5.1 4.4 15.4 6.2 22.4 3.5c13.2-5.1 15.7-24.8 16-36.4c0.4-15.1 5-92.1 14.8-107.2c14.3-22.1 16.5 8.6 24 13.3c8.7 5.4 10.7-40.7 26.6-24.4c8.6 8.8 0 30.6-3.4 42.1c-2 6.7-6.9 48.2-5.9 54.8c0.4 2.9 2.8 5 5.5 6.8c3.9 2.8 8.5 5 7.7 8.4z" />
							<path id="&lt;Path&gt;" class="s8" d="m752 476.2c0 38.7-172.7 63.6-376.7 63.6c-204.1 0-362.2-24.9-362.2-63.6c0-38.8 158.1-76.7 362.2-76.7c204 0 376.7 37.9 376.7 76.7z" />
							<path id="&lt;Path&gt;" class="s9" d="m686.3 512.4c-66.5 16.6-183.4 26.1-313.2 25.8c-200.9-0.6-356.6-24.4-356.5-60.9c0.1-22.1 57.8-43.8 148.2-57.3c-55.2 12.9-109.4 28.6-109.4 45.3c-0.1 36.5 176 66.3 376.9 66.9c96.8 0.2 187.1-10.2 254-19.8z" />
							<path id="&lt;Path&gt;" class="s10" d="m597.3 620.9c5.7 9.5 16.7 28.9 29.7 30.5c13.7 1.7 23.2-24.3 19.6 22c-0.7 9.3-3 34.3-19.1 38.2c-38.1 9.4-24.9-69-30.2-90.7z" />
							<path id="&lt;Path&gt;" class="s11" d="m544.7 608.4c3.6 6.7 17.5 36 26 37.7c9 1.7 54.7-7.1 29.3 11c-9.1 6.5-19.3 28.8-30 31c-23.4 4.8-18.9-49.1-25.3-79.7z" />
							<path id="&lt;Path&gt;" class="s12" d="m148.9 702.2c-11.4-2.8-12.9-20.5-13.4-27.2c-2.2-32.5 4.3-14.3 14-15.5c9.2-1.1 17-14.7 21.1-21.4c-3.8 15.2 5.4 70.8-21.7 64.1z" />
							<path id="&lt;Path&gt;" class="s13" d="m306.1 590.8c8.1 11.4 24.2 63.4 39.3 66.2c15.7 3 22.8-25.2 25.3 26c0.5 10.3 1.5 37.7-16.1 40.8c-41.9 7.4-39.2-107.7-48.5-133z" />
							<path id="&lt;Path&gt;" class="s14" d="m261.6 566.7c-18.5 11.3-21.4 33.2-37.3 36.2c-20.9 3.9-32.1-15.3-39.4-39.8z" />
						</g>
					</g>
				</g>
			</g>
			<g id="&lt;Group&gt;">
				<g id="&lt;Group&gt;">
					<path id="&lt;Path&gt;" class="s15" d="m498.1 400.8c2.4 2.9 5.1 6.8 5 8.1c-0.1 1.1-6.1 1.5-8.1 2.4c6.8-1.3 20.1-6.4 22.5-2.6c1.8 2.9 7 4.4 6.8 5.8c-0.2 1.3-1.6 4.6-7.2 6.3c-16.5 5-44.7 2.8-52.9-0.7c-4.1-2.4-5.6-6.1-5.1-10c0.3-2.3 5.6-7 8.9-8.6c10.7-5.7 26.7-4.9 30.1-0.7z" />
					<path id="&lt;Path&gt;" class="s16" d="m498.3 398.4c2.2 2.9 4.8 6.8 4.7 8.1c-0.1 1-5.8 1.6-7.7 2.5c6.4-1.4 22-7 24.3-3.1c1.7 2.9 3.5 6.5 3.2 7.9c-0.2 1.4-3.2 3.6-6.5 4.7c-13.9 4.5-48.3 2.3-51.2 0.3c-2-2-4.2-6.9-3.8-10.7c0.3-2.4 2.4-4 2.6-5.9c10.1-5.7 31.1-8 34.4-3.8z" />
					<path id="&lt;Path&gt;" class="s17" d="m464.2 401.5c1.3-0.8 5.5 0.1 7.2-0.5l-6.3 17.8c-2.7-2.1-4.2-6.9-3.8-10.7c0.3-2.4 1.4-4.7 2.9-6.6z" />
					<path id="&lt;Path&gt;" class="s17" d="m508.8 407.1c4.8-1 9.7-3.1 10.8-1.2c1.7 2.9 3.5 6.5 3.2 7.9c-0.2 1.4-3.2 3.6-6.5 4.7q-3.5-9.7-7.5-11.4z" />
					<path id="&lt;Path&gt;" class="s18" d="m494.6 396.3c5.2 1.7 5.5 4.4 1.3 6.5c6.4-1.3 14.6-1.2 19.8 0.6c6 2 5.5 5.4-1.1 7.5c-14 4.5-40.8 1-47.1 1.1c0.3-2.1-11.3-10.4 4.4-15.5c6.6-2.1 16.8-2.2 22.7-0.2z" />
				</g>
				<g id="&lt;Group&gt;">
					<path id="&lt;Path&gt;" class="s19" d="m467.9 412c-0.1 0-0.3 0-0.4 0c0.3-2.1-11.3-10.4 4.4-15.5c6.6-2.1 16.8-2.2 22.7-0.2c2.9 0.9 4.2 2.2 4.1 3.5c-0.6-0.4-1.3-0.8-2.3-1.1c-6-2-16.2-1.9-22.8 0.2c-11.9 3.9-8 9.7-5.7 13.1z" />
				</g>
			</g>
			<g id="&lt;Group&gt;">
				<path id="&lt;Path&gt;" class="s20" d="m627.8 429.2c-0.4 0.6-11 4.2-16.8 4.4c0.3 0.3 3.2 6.8 4.3 10.1c-6.3-1-20-5.9-31.7-4.2c-11 1.6-45.2-6-44.6-16.7c-0.4-3.7 4.6-1.2 6.9-3.8h16.7c5.8 1.4 11.5 2.6 17.4 3.5c12.7 2.2 24.4 1 37.1 0.6c2 0 3.8-0.5 5.4-1.2c4.2 0.8 7.5 2.2 5.3 7.3z" />
				<g id="&lt;Group&gt;">
					<g id="&lt;Group&gt;">
						<path id="&lt;Path&gt;" class="s21" d="m547.9 407c7.5-4.6 3.1-11.5 6.8-12.9c11.1 2.9 48.8-15 54.6-8.4q14.6 17-14.9 32.1c-11.3-12.4-54.6-4.4-46.5-10.8z" />
						<path id="&lt;Path&gt;" class="s22" d="m612.5 425.4c-35 18.2-35.5-13.9-27.7-20.5c13.2-1.4 19.8-6.6 36.4-6c2.6 0.1 5.6-0.4 6.4-1.9c-9.8 12-5.9 22.8-15.1 28.4z" />
						<path id="&lt;Path&gt;" class="s21" d="m564.4 371.4c7.6-4.6 6.9-7 15.1-4.9c11.1 2.9 19.6 0.5 25.4 7q-7.4 13.5-15.2 16c-11.3-12.3-33.4-11.6-25.3-18.1z" />
						<path id="&lt;Path&gt;" class="s23" d="m596.9 376.5c1.7-0.7 2-12.1 10.5 0.2c6.3 9.2-17.3 19.9-32.6 8.2c-14.6-11.2-18.4-8.1-21.3-6.4c0.5-2.9 7.2-5.2 10.3-6.8c6.2-3.4 7.4 15.4 33.1 4.8z" />
						<g id="&lt;Group&gt;">
							<path id="&lt;Path&gt;" class="s23" d="m586.4 345.4c-10.5 17 9.9 15.8 10.5 30.3c11.2-22.6-19.2-12.4-10.5-30.3z" />
							<path id="&lt;Path&gt;" class="s22" d="m586.4 345.4c-8.8 14.6 11.2 17.2 10.5 30.3c-17-7.7-22.5-16.4-10.5-30.3z" />
							<path id="&lt;Path&gt;" class="s23" d="m591.5 368.3q6.9 3.2 5.4 7.4c-3.1-2.2-4.7 1.4-15.8-1.5c-18.7-4.8-13.2-16.2 5.3-28.8c-10.3 13-2.8 19.2 5.1 22.9z" />
							<path id="&lt;Path&gt;" class="s24" d="m585.5 346.2c-3.7 4.1-23.3 15.1 3.9 25.4c-12.7-8.6-12.7-14.2-3.9-25.4z" />
							<path id="&lt;Path&gt;" class="s22" d="m569.6 364.3c-0.2 4.1 3.4 7.4 11.6 9.5c11.1 2.9 12.2-0.5 15.7 1.9q-2.5 0.5-10.2 2.9c-8.2 2.6-19.8-3.9-17.1-14.3z" />
							<path id="&lt;Path&gt;" class="s24" d="m586.4 345.4c-4.4 11.8 9.6 8.3 12.5 19c-2.9-8.1-19.6-4.7-12.5-19z" />
						</g>
						<path id="&lt;Path&gt;" class="s22" d="m554.8 393.6c2-4.9-2.1-14.6-1.3-15.1c2.9-1.7 6.7-5.7 21.3 5.5c15.3 11.7 38.9 1.9 32.6-7.3c5.5 6.4-4.3 15.1-5.7 16.3c-23.3 19.7-48.4 4.1-46.9 0.6z" />
						<path id="&lt;Path&gt;" class="s23" d="m588.4 407c9.8 3.2 21.1 23.4 24.5 34c-4.8-2.4-14.9-19.5-37.5-18.7c-22.7 0.8-42.4-11.5-39.5-17.5c2.8-6.1 8.3-11 18.5-10.7c-0.6 10.8 24.1 9.8 34 12.9z" />
						<path id="&lt;Path&gt;" class="s24" d="m582.5 382.4c11.4 3.4 28.6 2.1 24.9-5.7c7.3 9.1-17.3 20.1-32.6 8.4c-14.6-11.2-18.4-8.3-21.3-6.6c4.8-6 16.7 0.4 29 3.9z" />
						<path id="&lt;Path&gt;" class="s24" d="m606.2 431.4c-1.9-2.4-17.2-14.5-38.3-15.6c-20-1-42.4-15.9-16.8-20.9c-7 6.2 1.7 13.4 13.8 14.4c13.6 1.3 25-4.5 41.3 22.1z" />
						<path id="&lt;Path&gt;" class="s22" d="m540.4 420.2c-0.5-4.9-4.2-3.7-4.7-13.2c1.8 6.4 20 14.4 40.1 13.7c22.7-0.7 32.3 17.9 37.1 20.3c-6.2-0.9-17.8-5.8-29.5-4.2c-11 1.6-43.6-5.8-43-16.6z" />
						<path id="&lt;Path&gt;" class="s23" d="m621.2 398.9c-16.6-0.6-19.9 9.3-36.4 6c6.6-1.9 23.2-11.3 24.5-19.2c21.4 0.7 20.7 13.5 11.9 13.2z" />
						<path id="&lt;Path&gt;" class="s24" d="m622.6 399.4q-4.8-0.1-13.4 1.1c0-2.1 9.2-3.2 12.2-5.5c3.9-2.9 0.6-6.9-12.1-9.3c21.4 0.7 22.2 14 13.3 13.7z" />
					</g>
					<path id="&lt;Path&gt;" class="s22" d="m634.3 410.6c-0.9 8-5.7 9.7-8.6 16.5c-0.4 0.6-11.2 3.8-17 4c0-0.5-4.6-8.3-6.6-11.2c14.9 1.6 33-16.5 32.2-9.3z" />
					<path id="&lt;Path&gt;" class="s23" d="m602.3 420.2c12.2-3.3 16.9-7.3 18.6-11.2c0.8-3.7 2.4-5.5 2.8-6.1c4.6 0.3 11.6 0.5 10.6 7.7c-1.1 7.1-22.8 8.9-32 9.6z" />
					<path id="&lt;Path&gt;" class="s21" d="m599.9 416.8c21.1-2.5 16.7-13.7 24.6-15.4l-0.8 1.5c-0.4 0.6-2 2.4-2.8 6.1c-1.7 3.9-6.4 7.9-18.6 11.2z" />
					<path id="&lt;Path&gt;" class="s21" d="m540.4 420.2c-0.2-2.4-1.3-3.4-2.4-4.9c22.8 9.9 3 14.5 44.2 18.4c22.3 2.1 25.9 4.9 30.7 7.3c-6.2-0.9-17.8-5.8-29.5-4.2c-11 1.6-43.6-5.8-43-16.6z" />
				</g>
			</g>
			<g id="&lt;Group&gt;">
				<path id="&lt;Path&gt;" class="s15" d="m678.2 438c30.7 4.5 40.3 15 38 18.8c-2.1 5.6-44.4 7.5-77.7 1.9c-26.2-4.4-26.4-10.6-20.4-13.3c5.2-2.3 18.6 0 32.4 1.3c-11.6-2.3-16.9-5.7-11.7-8c6-2.7 23.7-3.1 39.4-0.7z" />
				<path id="&lt;Path&gt;" class="s17" d="m644.4 425.4q58.3 4.6 68.8 14c0.8 0.7 3.5 9.5 0.5 15.3c-13.1 3.4-42.4 5-74.1 0.3c-12.5-1.8-19.8-4.8-18.5-7.2c0.2-0.5 4.5-12.8 5.4-14.2c3-4.5 15.3 6 28.4 7.3c-11.1-2.3-18.9-7-14-9.2c0.4-0.2 1.3-3.7 3.5-6.3z" />
				<path id="&lt;Path&gt;" class="s18" d="m679.2 423.6c25.8 3.8 32.5 13.7 34 15.8c-9.3 0.1-42 4.6-70.1 0.5c-13.3-2-20-5.4-15-7.7c4.4-2 16.1-2.4 27.7-1.3c-9.8-2-14.2-4.8-9.9-6.7c5.1-2.3 20-2.6 33.3-0.6z" />
				<g id="&lt;Group&gt;">
					<g id="&lt;Group&gt;">
						<path id="&lt;Path&gt;" class="s19" d="m679.8 425.3c-12.3-1.8-26-1.5-30.6 0.6c-2.2 0.9-2 2.1 0 3.3c-4.9-1.7-6.4-3.6-3.3-5c5.1-2.3 20-2.6 33.3-0.6c25.8 3.8 32.5 13.7 34 15.8q-1 0-2.3 0.1c-1.9-2.6-8.8-10.9-31.1-14.2z" />
					</g>
					<g id="&lt;Group&gt;">
						<path id="&lt;Path&gt;" class="s19" d="m628.1 432.2c4-1.8 14-2.3 24.6-1.5q2.3 0.7 5.6 1.4c-10.8-1.1-21.5-0.6-25.6 1.2c-4.4 2 1.2 5 12.7 6.9q-1.2-0.2-2.3-0.3c-13.3-2-20-5.4-15-7.7z" />
					</g>
				</g>
			</g>
			<g id="&lt;Group&gt;">
				<path id="&lt;Path&gt;" class="s20" d="m744.9 478.9c-0.4 0.6-11.6 4.5-17.8 4.7c0.3 0.3 3.4 7.1 4.6 10.6c-6.7-1-21.3-6.1-33.7-4.4c-11.7 1.7-48.1-6.3-47.4-17.8c-0.4-3.9 4.9-1.2 7.3-3.9h17.8c6.1 1.4 12.2 2.7 18.4 3.7c13.5 2.3 26 1 39.4 0.6c2.2 0 4.1-0.5 5.8-1.2c4.5 0.8 7.9 2.3 5.6 7.7z" />
				<g id="&lt;Group&gt;">
					<g id="&lt;Group&gt;">
						<path id="&lt;Path&gt;" class="s21" d="m660 455.3c8-4.9 3.3-12.2 7.3-13.7c11.8 3.1 51.8-15.9 58-9q15.5 18.1-15.9 34.1c-12-13-58-4.5-49.4-11.4z" />
						<path id="&lt;Path&gt;" class="s22" d="m728.6 474.9c-37.1 19.3-37.6-14.8-29.4-21.9c14.1-1.4 21.1-6.9 38.7-6.3c2.8 0.1 6-0.4 6.8-2c-10.4 12.8-6.3 24.2-16.1 30.2z" />
						<path id="&lt;Path&gt;" class="s21" d="m677.6 417.5c8-4.9 7.3-7.5 16-5.2c11.8 3 20.8 0.5 27 7.4q-7.9 14.4-16.1 17c-12-13.1-35.5-12.4-26.9-19.2z" />
						<path id="&lt;Path&gt;" class="s23" d="m712.1 422.9c1.8-0.8 2.2-12.8 11.2 0.3c6.7 9.7-18.4 21-34.6 8.6c-15.6-11.9-19.6-8.5-22.7-6.7c0.6-3.2 7.7-5.6 10.9-7.3c6.6-3.6 7.9 16.3 35.2 5.1z" />
						<g id="&lt;Group&gt;">
							<path id="&lt;Path&gt;" class="s23" d="m701 389.9c-11.2 18.1 10.4 16.7 11.1 32.2c11.9-24.1-20.4-13.2-11.1-32.2z" />
							<path id="&lt;Path&gt;" class="s22" d="m701 389.9c-9.4 15.5 11.8 18.2 11.1 32.2c-18.1-8.2-23.9-17.5-11.1-32.2z" />
							<path id="&lt;Path&gt;" class="s23" d="m706.4 414.2q7.3 3.4 5.7 7.9c-3.2-2.3-5 1.4-16.8-1.7c-19.9-5.1-14-17.1 5.7-30.5c-11 13.8-3 20.4 5.4 24.3z" />
							<path id="&lt;Path&gt;" class="s24" d="m700 390.7c-4 4.4-24.8 16.1 4.2 27c-13.6-9.1-13.6-15.1-4.2-27z" />
							<path id="&lt;Path&gt;" class="s22" d="m683.1 410c-0.2 4.3 3.6 7.8 12.3 10.1c11.9 3 12.9-0.6 16.7 2q-2.6 0.5-10.8 3.1c-8.8 2.7-21.1-4.2-18.2-15.2z" />
							<path id="&lt;Path&gt;" class="s24" d="m701 389.9c-4.7 12.5 10.2 8.8 13.3 20.2c-3.2-8.6-20.9-5.1-13.3-20.2z" />
						</g>
						<path id="&lt;Path&gt;" class="s22" d="m667.3 441.1c2.2-5.2-2.2-15.5-1.3-16c3.1-1.8 7.1-6.2 22.7 5.8c16.2 12.4 41.3 2 34.6-7.7c5.7 6.7-4.6 15.9-6.1 17.2c-24.8 21-51.4 4.4-49.9 0.7z" />
						<path id="&lt;Path&gt;" class="s23" d="m703 455.3c10.5 3.4 22.4 24.9 26.1 36.2c-5.1-2.7-15.8-20.8-39.9-20c-24 0.9-44.9-12.1-41.9-18.6c3-6.4 8.9-11.7 19.7-11.3c-0.7 11.4 25.6 10.4 36 13.7z" />
						<path id="&lt;Path&gt;" class="s24" d="m696.8 429.2c12.1 3.6 30.4 2.2 26.5-6c7.7 9.6-18.4 21.3-34.6 8.9c-15.6-12-19.6-8.8-22.7-7c5.1-6.5 17.7 0.3 30.8 4.1z" />
						<path id="&lt;Path&gt;" class="s24" d="m722 481.2c-2.1-2.6-18.3-15.3-40.8-16.5c-21.2-1.1-44.9-16.9-17.7-22.3c-7.5 6.6 1.8 14.2 14.6 15.4c14.5 1.3 26.6-4.9 43.9 23.4z" />
						<path id="&lt;Path&gt;" class="s22" d="m652.1 469.3c-0.6-5.2-4.5-3.9-5-14c1.8 6.8 21.2 15.3 42.6 14.6c24-0.8 34.3 18.9 39.4 21.6c-6.6-1.1-18.9-6.3-31.4-4.5c-11.6 1.7-46.3-6.2-45.6-17.7z" />
						<path id="&lt;Path&gt;" class="s23" d="m737.9 446.7c-17.6-0.6-21.2 9.9-38.7 6.3c7.1-1.9 24.7-12 26.1-20.4c22.7 0.8 22 14.4 12.6 14.1z" />
						<path id="&lt;Path&gt;" class="s24" d="m739.4 447.3q-5.1-0.2-14.3 1.1c0.1-2.2 9.9-3.4 13-5.8c4.2-3.1 0.7-7.4-12.8-10c22.7 0.8 23.5 15 14.1 14.7z" />
					</g>
					<path id="&lt;Path&gt;" class="s22" d="m751.8 459.1c-1 8.6-6 10.4-9.1 17.6c-0.4 0.6-11.9 4-18 4.2c-0.1-0.5-5-8.8-7-11.9c15.7 1.7 34.9-17.5 34.1-9.9z" />
					<path id="&lt;Path&gt;" class="s23" d="m717.8 469.3c13-3.5 18-7.8 19.8-11.8c0.9-4 2.5-5.9 3-6.5c4.9 0.3 12.3 0.5 11.2 8.1c-1.2 7.6-24.2 9.5-34 10.2z" />
					<path id="&lt;Path&gt;" class="s21" d="m715.3 465.7c22.4-2.6 17.8-14.6 26.1-16.3l-0.8 1.6c-0.5 0.6-2.1 2.5-3 6.5c-1.8 4-6.8 8.3-19.8 11.8z" />
					<path id="&lt;Path&gt;" class="s21" d="m652.1 469.3c-0.3-2.6-1.4-3.6-2.5-5.2c24.2 10.6 3.1 15.4 46.9 19.5c23.6 2.3 27.5 5.2 32.6 7.9c-6.6-1.1-18.9-6.3-31.4-4.5c-11.6 1.7-46.3-6.2-45.6-17.7z" />
				</g>
			</g>
			<g id="&lt;Group&gt;">
				<path id="&lt;Path&gt;" class="s15" d="m658.6 481.1c4.9 2.8 12.5 10.9 12.6 14.8c0.2 6.4-2.6 12.4-9.3 16.1c-13.1 5.3-57.1 7.3-82-1.9c-8.5-3.2-10.1-8.7-10.3-11c-0.1-2.2 8.2-4.4 11.4-9.1c4.2-6.2 24.1 3.2 34.4 5.7c-2.9-1.6-12.2-2.7-12.2-4.4c0-2.2 4.7-8.6 8.8-13.2c6-6.8 30.8-7 46.6 3z" />
				<path id="&lt;Path&gt;" class="s16" d="m664.9 482.5c0 3.1 3 5.9 3.1 9.8c0.2 6.4-3.9 14.4-7.3 17.5c-4.7 3.1-58.2 4.7-79.2-3.6c-5-1.9-9.4-5.8-9.5-8.1c-0.2-2.2 3.1-8.2 6.1-12.9c4-6.2 27.4 4 37.1 6.6c-2.7-1.6-11.5-2.8-11.5-4.5c0-2.2 4.5-8.5 8.3-13.1c5.7-6.8 38-1.8 52.9 8.3z" />
				<path id="&lt;Path&gt;" class="s17" d="m668 492.3c0.2 6.4-2.8 14.2-7.3 17.5l-7.4-29.7c2.6 1.1 9.2-0.2 11.2 1.2c2 3.3 3.4 7.1 3.5 11z" />
				<path id="&lt;Path&gt;" class="s17" d="m581.5 506.2c-5-1.9-9.4-5.8-9.5-8.1c-0.2-2.2 3.1-8.2 6.1-12.9c2-3 9.3 0.8 16.6 2.7q-6.4 2.6-13.2 18.3z" />
				<path id="&lt;Path&gt;" class="s18" d="m653.2 472.5c23.7 9.4 4.5 22.5 4.7 25.9c-9.7-0.4-51.8 3.6-72.7-4.6c-9.9-3.9-10.2-9.5-0.7-12.5c8.2-2.5 21-2.3 30.7 0.3c-6.2-3.7-5.4-8.2 2.8-10.8c9.5-2.9 25.3-2.2 35.2 1.7z" />
				<g id="&lt;Group&gt;">
					<path id="&lt;Path&gt;" class="s19" d="m658 498.2c0 0.1-0.1 0.2-0.1 0.2c-9.7-0.4-51.8 3.6-72.7-4.6c-9.9-3.9-10.2-9.5-0.7-12.5c4.2-1.3 9.7-1.9 15.3-1.8q-3.8 0.4-6.9 1.5c-9.5 2.9-9.2 8.5 0.7 12.4c17.1 6.7 48.2 5.3 64.4 4.8z" />
				</g>
			</g>
			<g id="&lt;Group&gt;">
				<path id="&lt;Path&gt;" class="s15" d="m322.8 398.7c3.3 1.6 8.6 6.3 8.9 8.6c0.4 3.9-1 7.6-5.2 10c-8.1 3.5-36.3 5.7-52.8 0.7c-5.7-1.7-7-5-7.2-6.3c-0.2-1.4 5-2.9 6.8-5.8c2.4-3.9 15.7 1.3 22.4 2.6c-1.9-0.9-8-1.3-8.1-2.4c-0.1-1.3 2.7-5.2 5-8.1c3.5-4.3 19.5-5 30.2 0.7z" />
				<path id="&lt;Path&gt;" class="s16" d="m326.9 399.4c0.2 1.9 2.3 3.5 2.5 5.8c0.5 3.9-1.7 8.8-3.8 10.8c-2.8 2-37.2 4.2-51.1-0.3c-3.3-1.1-6.4-3.4-6.6-4.7c-0.2-1.4 1.6-5 3.3-8c2.2-3.8 17.8 1.8 24.2 3.2c-1.8-0.9-7.5-1.5-7.6-2.5c-0.1-1.3 2.4-5.2 4.7-8.1c3.2-4.2 24.3-1.9 34.4 3.8z" />
				<path id="&lt;Path&gt;" class="s17" d="m329.4 405.2c0.5 3.9-1 8.7-3.8 10.8l-6.3-17.8c1.8 0.6 5.9-0.3 7.3 0.5c1.5 1.9 2.6 4.2 2.8 6.5z" />
				<path id="&lt;Path&gt;" class="s17" d="m274.5 415.7c-3.3-1.1-6.4-3.4-6.6-4.7c-0.2-1.4 1.6-5 3.3-8c1.1-1.8 6 0.3 10.8 1.3q-4 1.7-7.5 11.4z" />
				<path id="&lt;Path&gt;" class="s18" d="m318.9 393.7c15.7 5.1 4.1 13.4 4.4 15.5c-6.3-0.1-33.2 3.4-47.1-1.1c-6.6-2.2-7.1-5.5-1.1-7.5c5.1-1.8 13.4-1.9 19.8-0.6c-4.2-2.1-3.9-4.8 1.2-6.5c6-2 16.2-2 22.8 0.2z" />
				<g id="&lt;Group&gt;">
					<path id="&lt;Path&gt;" class="s19" d="m323.3 409c0 0.1 0 0.1 0 0.2c-6.3-0.1-33.2 3.4-47.1-1.1c-6.6-2.2-7.1-5.5-1.1-7.5c2.6-0.9 6.1-1.4 9.8-1.5c-1.6 0.3-3.1 0.6-4.4 1c-6 2.1-5.5 5.4 1.1 7.5c11.4 3.7 31.3 2.1 41.7 1.4z" />
				</g>
			</g>
			<path id="&lt;Path&gt;" class="s20" d="m423.5 426.8c-7-1.2-13.9-3.5-21.1-3.8c-12.8-0.5-23.2 2.4-35.7-2.8c-3.3-1.5-7.1-2.6-9.4-5.6c-2.2-2.7-3-10.4 2-10.6q0 0 15.5 0c5.3 1.3 10.6 2.4 16 3.3c11.9 2 22.7 0.9 34.5 0.5c1.8 0 3.5-0.4 5-1.1c3.9 0.8 6.9 2 4.9 6.8c-0.3 0.5-10.2 3.9-15.5 4c1.8 2.1 3.1 6.6 3.8 9.3z" />
			<g id="&lt;Group&gt;">
				<g id="&lt;Group&gt;">
					<path id="&lt;Path&gt;" class="s21" d="m363.8 395.8c6.6-4 2.7-9.9 5.9-11.2c9.7 2.5 42.3-13 47.4-7.3q12.7 14.8-13 27.8c-9.8-10.6-47.3-3.7-40.3-9.3z" />
					<path id="&lt;Path&gt;" class="s22" d="m419.8 411.8c-30.3 15.8-30.7-12.1-24-17.8c11.5-1.2 17.2-5.7 31.6-5.2c2.3 0 4.9-0.3 5.6-1.7c-8.5 10.5-5.2 19.8-13.2 24.7z" />
					<path id="&lt;Path&gt;" class="s21" d="m378.2 364.9c6.5-3.9 5.9-6.1 13-4.2c9.7 2.5 17 0.4 22.1 6.1q-6.5 11.7-13.2 13.8c-9.8-10.7-29-10.1-21.9-15.7z" />
					<path id="&lt;Path&gt;" class="s23" d="m406.4 369.3c1.4-0.6 1.7-10.4 9 0.3c5.5 7.9-15 17.2-28.2 7c-12.7-9.7-16-7-18.5-5.5c0.5-2.5 6.3-4.5 8.9-5.9c5.4-3 6.5 13.3 28.8 4.1z" />
					<g id="&lt;Group&gt;">
						<path id="&lt;Path&gt;" class="s23" d="m397.2 342.4c-9.1 14.8 8.6 13.7 9.1 26.3c9.7-19.7-16.6-10.8-9.1-26.3z" />
						<path id="&lt;Path&gt;" class="s22" d="m397.2 342.4c-7.6 12.7 9.7 14.9 9.1 26.3c-14.7-6.7-19.4-14.3-9.1-26.3z" />
						<path id="&lt;Path&gt;" class="s23" d="m401.7 362.2q5.9 2.8 4.6 6.5c-2.6-1.9-4 1.1-13.7-1.3c-16.2-4.2-11.4-14.1 4.6-25c-8.9 11.3-2.4 16.6 4.5 19.8z" />
						<path id="&lt;Path&gt;" class="s24" d="m396.4 343c-3.2 3.6-20.2 13.2 3.5 22.1c-11.1-7.4-11.1-12.3-3.5-22.1z" />
						<path id="&lt;Path&gt;" class="s22" d="m382.6 358.8c-0.1 3.6 3 6.4 10.1 8.2c9.7 2.5 10.6-0.4 13.6 1.7q-2.1 0.4-8.8 2.5c-7.1 2.3-17.2-3.4-14.9-12.4z" />
						<path id="&lt;Path&gt;" class="s24" d="m397.2 342.4c-3.8 10.2 8.4 7.2 10.9 16.5c-2.6-7-17-4.1-10.9-16.5z" />
					</g>
					<path id="&lt;Path&gt;" class="s22" d="m369.8 384.2c1.8-4.2-1.8-12.7-1.1-13.1c2.5-1.5 5.8-5 18.5 4.8c13.2 10.1 33.7 1.6 28.2-6.3c4.8 5.5-3.7 13-4.9 14c-20.2 17.2-42 3.7-40.7 0.6z" />
					<path id="&lt;Path&gt;" class="s23" d="m398.9 395.8c8.5 2.8 18.3 20.3 21.3 29.5c-4.1-2.1-12.9-16.9-32.6-16.3c-19.6 0.7-36.6-9.9-34.2-15.1c2.5-5.3 7.3-9.6 16.1-9.3c-0.5 9.4 20.9 8.5 29.4 11.2z" />
					<path id="&lt;Path&gt;" class="s24" d="m393.8 374.5c9.9 2.9 24.9 1.8 21.6-4.9c6.4 7.8-15 17.4-28.2 7.2c-12.7-9.7-16-7.2-18.5-5.7c4.2-5.2 14.5 0.3 25.1 3.4z" />
					<path id="&lt;Path&gt;" class="s24" d="m414.4 417c-1.7-2.1-14.9-12.6-33.3-13.5c-17.3-0.9-36.7-13.8-14.5-18.2c-6.1 5.4 1.5 11.6 12 12.5c11.8 1.1 21.7-3.9 35.8 19.2z" />
					<path id="&lt;Path&gt;" class="s22" d="m357.3 407.3c-0.4-4.3-3.6-3.3-4-11.5c1.5 5.6 17.3 12.5 34.7 11.9c19.7-0.7 28.1 15.5 32.2 17.6c-5.4-0.8-15.4-5-25.6-3.6c-9.5 1.3-37.8-5.1-37.3-14.4z" />
					<path id="&lt;Path&gt;" class="s23" d="m427.4 388.8c-14.4-0.5-17.3 8.1-31.6 5.2c5.8-1.6 20.2-9.8 21.3-16.7c18.6 0.6 18 11.7 10.3 11.5z" />
					<path id="&lt;Path&gt;" class="s24" d="m428.7 389.3q-4.3-0.2-11.7 0.9c0-1.8 8-2.8 10.6-4.8c3.4-2.5 0.5-6-10.5-8.1c18.6 0.6 19.2 12.2 11.6 12z" />
				</g>
				<path id="&lt;Path&gt;" class="s22" d="m438.7 398.9c-0.7 7-4.9 8.5-7.4 14.3c-0.3 0.6-9.7 3.4-14.7 3.5c-0.1-0.4-4.1-7.2-5.7-9.7c12.9 1.4 28.5-14.3 27.8-8.1z" />
				<path id="&lt;Path&gt;" class="s23" d="m411 407.2c10.6-2.8 14.7-6.3 16.2-9.6c0.7-3.2 2-4.8 2.4-5.3c4 0.3 10.1 0.4 9.1 6.6c-0.9 6.2-19.7 7.8-27.7 8.3z" />
				<path id="&lt;Path&gt;" class="s21" d="m408.9 404.3c18.3-2.1 14.6-11.9 21.4-13.3l-0.7 1.3c-0.4 0.5-1.7 2.1-2.4 5.3c-1.5 3.3-5.6 6.8-16.2 9.6z" />
				<path id="&lt;Path&gt;" class="s21" d="m357.3 407.3c-0.2-2.2-1.1-3-2-4.3c19.7 8.6 2.6 12.6 38.3 15.9c19.3 1.8 22.5 4.3 26.6 6.4c-5.4-0.8-15.4-5-25.6-3.6c-9.5 1.3-37.8-5.1-37.3-14.4z" />
			</g>
			<g id="&lt;Group&gt;">
				<path id="&lt;Path&gt;" class="s20" d="m248.2 424.6c-0.4 0.6-11 4.2-16.8 4.4c0.3 0.3 3.2 6.7 4.3 10c-6.3-1-20-5.8-31.7-4.1c-11 1.5-45.2-6-44.6-16.8c-0.4-3.7 4.6-1.1 6.9-3.7h16.7c5.8 1.3 11.5 2.5 17.4 3.5c12.7 2.1 24.4 0.9 37.1 0.6q3-0.2 5.4-1.2c4.3 0.8 7.5 2.2 5.3 7.3z" />
				<g id="&lt;Group&gt;">
					<g id="&lt;Group&gt;">
						<path id="&lt;Path&gt;" class="s21" d="m168.3 402.3c7.5-4.5 3.1-11.4 6.8-12.8c11.1 2.8 48.8-15 54.6-8.5q14.6 17.1-14.9 32.1c-11.3-12.3-54.6-4.3-46.5-10.8z" />
						<path id="&lt;Path&gt;" class="s22" d="m232.9 420.8c-35 18.2-35.5-13.9-27.7-20.6c13.2-1.3 19.8-6.5 36.4-6c2.6 0.1 5.6-0.3 6.4-1.9c-9.8 12.1-5.9 22.8-15.1 28.5z" />
						<path id="&lt;Path&gt;" class="s21" d="m184.8 366.7c7.6-4.5 6.9-7 15.1-4.9c11.1 2.9 19.6 0.5 25.4 7.1q-7.4 13.5-15.2 16c-11.3-12.4-33.4-11.7-25.3-18.2z" />
						<path id="&lt;Path&gt;" class="s23" d="m217.3 371.8c1.7-0.7 2.1-12 10.5 0.3c6.3 9.2-17.3 19.8-32.5 8.1c-14.7-11.2-18.5-8-21.4-6.3c0.5-2.9 7.2-5.2 10.3-6.9c6.2-3.4 7.4 15.4 33.1 4.8z" />
						<g id="&lt;Group&gt;">
							<path id="&lt;Path&gt;" class="s23" d="m206.8 340.8c-10.5 17 9.9 15.7 10.5 30.3c11.2-22.7-19.2-12.4-10.5-30.3z" />
							<path id="&lt;Path&gt;" class="s22" d="m206.8 340.8c-8.8 14.6 11.2 17.1 10.5 30.3c-17-7.7-22.5-16.5-10.5-30.3z" />
							<path id="&lt;Path&gt;" class="s23" d="m211.9 363.7q6.9 3.2 5.4 7.4c-3.1-2.2-4.7 1.3-15.8-1.6c-18.7-4.8-13.2-16.1 5.3-28.7c-10.3 13-2.8 19.2 5.1 22.9z" />
							<path id="&lt;Path&gt;" class="s24" d="m205.9 341.5c-3.7 4.1-23.3 15.2 3.9 25.5c-12.7-8.6-12.7-14.3-3.9-25.5z" />
							<path id="&lt;Path&gt;" class="s22" d="m190 359.7c-0.2 4.1 3.4 7.4 11.6 9.5c11.1 2.9 12.2-0.6 15.7 1.9q-2.5 0.4-10.2 2.9c-8.2 2.6-19.8-3.9-17.1-14.3z" />
							<path id="&lt;Path&gt;" class="s24" d="m206.8 340.8c-4.4 11.8 9.6 8.3 12.6 19c-3-8.1-19.7-4.8-12.6-19z" />
						</g>
						<path id="&lt;Path&gt;" class="s22" d="m175.2 389c2-4.9-2.1-14.6-1.3-15.1c2.9-1.7 6.7-5.8 21.3 5.5c15.3 11.6 38.9 1.9 32.6-7.3c5.5 6.3-4.3 15-5.7 16.2c-23.3 19.8-48.4 4.2-46.9 0.7z" />
						<path id="&lt;Path&gt;" class="s23" d="m208.8 402.4c9.8 3.1 21.1 23.4 24.5 34c-4.8-2.5-14.9-19.6-37.5-18.8c-22.7 0.8-42.3-11.4-39.5-17.5c2.8-6 8.3-11 18.5-10.6c-0.6 10.7 24.1 9.7 34 12.9z" />
						<path id="&lt;Path&gt;" class="s24" d="m202.9 377.8c11.4 3.4 28.6 2.1 24.9-5.7c7.3 9.1-17.3 20.1-32.6 8.4c-14.6-11.3-18.4-8.3-21.3-6.6c4.8-6.1 16.7 0.3 29 3.9z" />
						<path id="&lt;Path&gt;" class="s24" d="m226.6 426.7c-1.9-2.4-17.2-14.4-38.3-15.5c-20-1.1-42.4-15.9-16.8-21c-7 6.3 1.7 13.4 13.8 14.5c13.7 1.2 25-4.6 41.3 22z" />
						<path id="&lt;Path&gt;" class="s22" d="m160.8 415.6c-0.5-4.9-4.2-3.8-4.6-13.2c1.7 6.4 19.9 14.4 40 13.7c22.7-0.8 32.3 17.8 37.1 20.3c-6.2-1-17.8-5.9-29.5-4.2c-11 1.6-43.6-5.9-43-16.6z" />
						<path id="&lt;Path&gt;" class="s23" d="m241.6 394.2c-16.6-0.5-19.9 9.4-36.4 6c6.6-1.8 23.2-11.3 24.5-19.2c21.5 0.7 20.7 13.5 11.9 13.2z" />
						<path id="&lt;Path&gt;" class="s24" d="m243 394.8q-4.8-0.2-13.4 1.1c0-2.1 9.2-3.3 12.2-5.5c3.9-2.9 0.6-6.9-12.1-9.4c21.5 0.7 22.2 14.1 13.3 13.8z" />
					</g>
					<path id="&lt;Path&gt;" class="s22" d="m254.7 405.9c-0.9 8.1-5.7 9.8-8.6 16.6c-0.4 0.6-11.2 3.8-17 4c0-0.6-4.6-8.3-6.6-11.2c14.9 1.6 33-16.5 32.2-9.4z" />
					<path id="&lt;Path&gt;" class="s23" d="m222.7 415.5c12.2-3.2 16.9-7.3 18.6-11.1c0.8-3.7 2.4-5.5 2.8-6.1c4.6 0.3 11.6 0.5 10.6 7.6c-1.1 7.2-22.8 9-32 9.6z" />
					<path id="&lt;Path&gt;" class="s21" d="m220.3 412.2c21.1-2.5 16.7-13.8 24.6-15.4l-0.8 1.5c-0.4 0.6-2 2.4-2.8 6.1c-1.7 3.8-6.4 7.9-18.6 11.1z" />
					<path id="&lt;Path&gt;" class="s21" d="m160.8 415.6c-0.2-2.5-1.3-3.4-2.4-4.9c22.8 9.9 3 14.4 44.2 18.3c22.3 2.1 25.9 4.9 30.7 7.4c-6.2-1-17.8-5.9-29.5-4.2c-11 1.6-43.6-5.9-43-16.6z" />
				</g>
			</g>
			<g id="&lt;Group&gt;">
				<path id="&lt;Path&gt;" class="s15" d="m153.2 437.6c5.2 2.4-0.1 5.7-11.7 8.1c13.8-1.4 27.2-3.7 32.4-1.3c6 2.7 5.8 8.8-20.4 13.3c-33.3 5.6-75.6 3.7-77.7-1.9c-2.3-3.8 7.3-14.3 38-18.9c15.7-2.3 33.4-2 39.4 0.7z" />
				<path id="&lt;Path&gt;" class="s17" d="m151.1 430.6c4.9 2.2-2.9 7-14 9.2c13.1-1.3 25.4-11.7 28.4-7.3c0.9 1.4 5.2 13.7 5.4 14.2c1.3 2.4-6 5.5-18.5 7.3c-31.7 4.6-61 3-74.1-0.3c-3-5.9-0.3-14.6 0.5-15.4q10.5-9.3 68.8-14c2.2 2.6 3.1 6.2 3.5 6.3z" />
				<path id="&lt;Path&gt;" class="s18" d="m146.1 423.1c4.3 2-0.1 4.8-9.9 6.8c11.6-1.2 23.3-0.7 27.7 1.3c5 2.2-1.7 5.7-15 7.6c-28.1 4.2-60.8-0.3-70.1-0.5c1.5-2 8.2-12 34-15.8c13.3-2 28.2-1.7 33.3 0.6z" />
				<g id="&lt;Group&gt;">
					<g id="&lt;Group&gt;">
						<path id="&lt;Path&gt;" class="s19" d="m81.1 438.4q-1.3-0.1-2.3-0.1c1.5-2 8.2-12 34-15.8c13.3-2 28.2-1.7 33.3 0.6c3.1 1.4 1.6 3.4-3.3 5.1c2-1.2 2.2-2.4 0-3.4c-4.6-2.1-18.3-2.4-30.6-0.5c-22.3 3.3-29.2 11.5-31.1 14.1z" />
					</g>
					<g id="&lt;Group&gt;">
						<path id="&lt;Path&gt;" class="s19" d="m148.9 438.8q-1.1 0.2-2.3 0.3c11.5-1.8 17.1-4.8 12.7-6.9c-4.1-1.8-14.8-2.2-25.6-1.1q3.3-0.7 5.6-1.5c10.6-0.8 20.6-0.2 24.6 1.6c5 2.2-1.7 5.7-15 7.6z" />
					</g>
				</g>
			</g>
			<g id="&lt;Group&gt;">
				<path id="&lt;Path&gt;" class="s20" d="m131.2 488.7c-0.4 0.7-11.7 4.5-17.8 4.7c0.3 0.3 3.4 7.2 4.5 10.7c-6.6-1.1-21.2-6.2-33.7-4.4c-11.6 1.6-48-6.4-47.4-17.8c-0.4-3.9 4.9-1.3 7.4-4h17.7c6.1 1.4 12.3 2.7 18.5 3.7c13.5 2.3 25.9 1 39.4 0.7c2.1-0.1 4.1-0.5 5.8-1.3c4.5 0.9 7.9 2.3 5.6 7.7z" />
				<g id="&lt;Group&gt;">
					<g id="&lt;Group&gt;">
						<path id="&lt;Path&gt;" class="s21" d="m46.3 465.1c8-4.8 3.3-12.2 7.2-13.7c11.9 3.1 51.8-15.9 58.1-8.9q15.4 18.1-15.9 34.1c-12.1-13.1-58-4.6-49.4-11.5z" />
						<path id="&lt;Path&gt;" class="s22" d="m114.9 484.7c-37.2 19.4-37.7-14.8-29.4-21.8c14.1-1.5 21-7 38.6-6.4c2.8 0.1 6-0.3 6.9-2c-10.4 12.8-6.4 24.2-16.1 30.2z" />
						<path id="&lt;Path&gt;" class="s21" d="m63.9 427.3c8-4.8 7.2-7.4 15.9-5.2c11.9 3 20.9 0.5 27.1 7.5q-7.9 14.3-16.1 16.9c-12.1-13-35.6-12.3-26.9-19.2z" />
						<path id="&lt;Path&gt;" class="s23" d="m98.4 432.7c1.8-0.7 2.1-12.8 11.1 0.3c6.7 9.7-18.4 21-34.6 8.6c-15.6-11.9-19.5-8.5-22.6-6.7c0.5-3.1 7.6-5.5 10.9-7.3c6.5-3.6 7.9 16.4 35.2 5.1z" />
						<g id="&lt;Group&gt;">
							<path id="&lt;Path&gt;" class="s23" d="m87.2 399.7c-11.1 18.1 10.5 16.7 11.1 32.2c11.9-24.1-20.3-13.2-11.1-32.2z" />
							<path id="&lt;Path&gt;" class="s22" d="m87.2 399.7c-9.3 15.5 11.9 18.3 11.1 32.2c-18-8.2-23.8-17.5-11.1-32.2z" />
							<path id="&lt;Path&gt;" class="s23" d="m92.6 424q7.3 3.4 5.7 7.9c-3.2-2.3-4.9 1.4-16.7-1.6c-19.9-5.1-14-17.2 5.6-30.6c-10.9 13.9-3 20.4 5.4 24.3z" />
							<path id="&lt;Path&gt;" class="s24" d="m86.2 400.5c-3.9 4.4-24.7 16.1 4.2 27.1c-13.6-9.2-13.5-15.2-4.2-27.1z" />
							<path id="&lt;Path&gt;" class="s22" d="m69.3 419.8c-0.1 4.4 3.7 7.8 12.4 10.1c11.8 3 12.9-0.6 16.6 2q-2.6 0.5-10.8 3.1c-8.7 2.8-21.1-4.2-18.2-15.2z" />
							<path id="&lt;Path&gt;" class="s24" d="m87.2 399.7c-4.7 12.6 10.2 8.8 13.3 20.2c-3.1-8.6-20.8-5-13.3-20.2z" />
						</g>
						<path id="&lt;Path&gt;" class="s22" d="m53.6 450.9c2.2-5.2-2.2-15.5-1.3-16c3.1-1.8 7-6.1 22.6 5.8c16.2 12.4 41.3 2 34.6-7.7c5.8 6.7-4.5 15.9-6 17.2c-24.8 21-51.5 4.5-49.9 0.7z" />
						<path id="&lt;Path&gt;" class="s23" d="m89.3 465.2c10.4 3.3 22.4 24.8 26.1 36.1c-5.1-2.6-15.9-20.8-39.9-20c-24.1 0.9-45-12.1-42-18.5c3.1-6.5 8.9-11.7 19.8-11.4c-0.7 11.5 25.5 10.4 36 13.8z" />
						<path id="&lt;Path&gt;" class="s24" d="m83 439c12.1 3.6 30.5 2.2 26.5-6c7.8 9.6-18.4 21.3-34.6 8.9c-15.6-11.9-19.5-8.8-22.6-7c5.1-6.4 17.7 0.3 30.7 4.1z" />
						<path id="&lt;Path&gt;" class="s24" d="m108.2 491c-2-2.5-18.3-15.3-40.7-16.5c-21.2-1.1-45-16.9-17.8-22.2c-7.5 6.6 1.8 14.2 14.6 15.3c14.6 1.3 26.6-4.8 43.9 23.4z" />
						<path id="&lt;Path&gt;" class="s22" d="m38.3 479.2c-0.5-5.2-4.5-4-4.9-14.1c1.8 6.8 21.2 15.4 42.6 14.6c24-0.8 34.3 19 39.4 21.6c-6.7-1.1-18.9-6.2-31.4-4.5c-11.6 1.7-46.3-6.2-45.7-17.6z" />
						<path id="&lt;Path&gt;" class="s23" d="m124.1 456.5c-17.6-0.6-21.1 9.9-38.6 6.4c7.1-2 24.7-12 26.1-20.4c22.7 0.7 21.9 14.3 12.5 14z" />
						<path id="&lt;Path&gt;" class="s24" d="m125.7 457.1q-5.2-0.2-14.3 1.2c0.1-2.3 9.8-3.5 13-5.9c4.1-3.1 0.7-7.3-12.8-9.9c22.7 0.7 23.5 14.9 14.1 14.6z" />
					</g>
					<path id="&lt;Path&gt;" class="s22" d="m138 468.9c-0.9 8.6-6 10.4-9 17.6c-0.4 0.6-11.9 4-18.1 4.2c-0.1-0.5-4.9-8.7-7-11.8c15.8 1.6 35-17.6 34.1-10z" />
					<path id="&lt;Path&gt;" class="s23" d="m104.1 479.1c12.9-3.4 17.9-7.7 19.8-11.8c0.8-3.9 2.5-5.8 2.9-6.5c4.9 0.3 12.4 0.5 11.2 8.1c-1.1 7.6-24.1 9.5-33.9 10.2z" />
					<path id="&lt;Path&gt;" class="s21" d="m101.5 475.5c22.5-2.6 17.8-14.5 26.2-16.3l-0.9 1.6c-0.4 0.7-2.1 2.6-2.9 6.5c-1.9 4.1-6.9 8.4-19.8 11.8z" />
					<path id="&lt;Path&gt;" class="s21" d="m38.3 479.2c-0.2-2.6-1.4-3.6-2.5-5.2c24.2 10.5 3.2 15.3 46.9 19.4c23.7 2.3 27.6 5.3 32.7 7.9c-6.7-1.1-18.9-6.2-31.4-4.5c-11.6 1.7-46.3-6.2-45.7-17.6z" />
				</g>
			</g>
			<g id="&lt;Group&gt;">
				<path id="&lt;Path&gt;" class="s20" d="m340.4 514.3c-0.4 0.7-11.7 4.5-17.8 4.7c0.3 0.3 3.4 7.2 4.5 10.7c-6.7-1.1-21.2-6.2-33.7-4.4c-11.6 1.6-48-6.4-47.4-17.8c-0.4-3.9 4.9-1.2 7.4-4h17.7c6.1 1.4 12.3 2.7 18.5 3.7c13.5 2.3 25.9 1.1 39.4 0.7c2.1-0.1 4-0.5 5.7-1.3c4.6 0.9 8 2.3 5.7 7.7z" />
				<g id="&lt;Group&gt;">
					<g id="&lt;Group&gt;">
						<path id="&lt;Path&gt;" class="s21" d="m255.5 490.7c8-4.8 3.3-12.1 7.2-13.7c11.9 3.1 51.8-15.9 58-8.9q15.5 18.1-15.8 34.1c-12.1-13.1-58-4.6-49.4-11.5z" />
						<path id="&lt;Path&gt;" class="s22" d="m324.1 510.3c-37.2 19.4-37.7-14.7-29.4-21.8c14.1-1.5 21-7 38.6-6.4c2.8 0.1 6-0.3 6.9-2c-10.4 12.8-6.4 24.2-16.1 30.2z" />
						<path id="&lt;Path&gt;" class="s21" d="m273 452.9c8-4.8 7.3-7.4 16-5.2c11.9 3.1 20.9 0.5 27.1 7.5q-7.9 14.3-16.2 16.9c-12-13-35.5-12.3-26.9-19.2z" />
						<path id="&lt;Path&gt;" class="s23" d="m307.6 458.3c1.8-0.7 2.1-12.8 11.1 0.3c6.7 9.8-18.4 21.1-34.6 8.7c-15.6-12-19.5-8.6-22.6-6.8c0.5-3.1 7.6-5.5 10.8-7.3c6.6-3.6 8 16.4 35.3 5.1z" />
						<g id="&lt;Group&gt;">
							<path id="&lt;Path&gt;" class="s23" d="m296.4 425.3c-11.2 18.1 10.5 16.8 11.1 32.2c11.9-24.1-20.4-13.2-11.1-32.2z" />
							<path id="&lt;Path&gt;" class="s22" d="m296.4 425.3c-9.3 15.6 11.9 18.3 11.1 32.2c-18-8.2-23.8-17.4-11.1-32.2z" />
							<path id="&lt;Path&gt;" class="s23" d="m301.8 449.6q7.3 3.4 5.7 7.9c-3.2-2.3-4.9 1.4-16.7-1.6c-19.9-5.1-14-17.2 5.6-30.6c-10.9 13.9-3 20.4 5.4 24.3z" />
							<path id="&lt;Path&gt;" class="s24" d="m295.4 426.1c-3.9 4.4-24.7 16.1 4.2 27.1c-13.6-9.2-13.5-15.2-4.2-27.1z" />
							<path id="&lt;Path&gt;" class="s22" d="m278.5 445.4c-0.1 4.4 3.7 7.9 12.4 10.1c11.8 3.1 12.9-0.6 16.6 2q-2.6 0.5-10.8 3.1c-8.7 2.8-21.1-4.2-18.2-15.2z" />
							<path id="&lt;Path&gt;" class="s24" d="m296.4 425.3c-4.7 12.6 10.2 8.8 13.3 20.2c-3.1-8.6-20.8-5-13.3-20.2z" />
						</g>
						<path id="&lt;Path&gt;" class="s22" d="m262.8 476.5c2.1-5.2-2.2-15.5-1.3-16c3.1-1.8 7-6.1 22.6 5.8c16.2 12.4 41.3 2.1 34.6-7.7c5.8 6.7-4.5 16-6 17.2c-24.8 21-51.5 4.5-49.9 0.7z" />
						<path id="&lt;Path&gt;" class="s23" d="m298.5 490.8c10.4 3.3 22.4 24.8 26.1 36.1c-5.1-2.6-15.9-20.8-39.9-19.9c-24.1 0.8-45-12.2-42-18.6c3.1-6.5 8.9-11.7 19.7-11.4c-0.6 11.5 25.6 10.4 36.1 13.8z" />
						<path id="&lt;Path&gt;" class="s24" d="m292.2 464.7c12.1 3.5 30.4 2.2 26.5-6.1c7.8 9.6-18.4 21.3-34.6 8.9c-15.6-11.9-19.5-8.8-22.6-7c5.1-6.4 17.7 0.3 30.7 4.2z" />
						<path id="&lt;Path&gt;" class="s24" d="m317.4 516.6c-2-2.5-18.3-15.3-40.7-16.5c-21.2-1.1-45-16.9-17.8-22.2c-7.5 6.6 1.8 14.2 14.6 15.3c14.6 1.3 26.6-4.8 43.9 23.4z" />
						<path id="&lt;Path&gt;" class="s22" d="m247.5 504.8c-0.5-5.2-4.5-4-4.9-14.1c1.8 6.8 21.2 15.4 42.5 14.6c24.1-0.8 34.4 19 39.5 21.6c-6.7-1-18.9-6.2-31.4-4.5c-11.6 1.7-46.3-6.2-45.7-17.6z" />
						<path id="&lt;Path&gt;" class="s23" d="m333.3 482.1c-17.6-0.6-21.1 10-38.6 6.4c7-2 24.7-12 26-20.4c22.8 0.7 22 14.3 12.6 14z" />
						<path id="&lt;Path&gt;" class="s24" d="m334.9 482.7q-5.2-0.2-14.3 1.2c0-2.3 9.8-3.5 13-5.9c4.1-3.1 0.6-7.3-12.9-9.9c22.8 0.7 23.6 14.9 14.2 14.6z" />
					</g>
					<path id="&lt;Path&gt;" class="s22" d="m347.2 494.5c-0.9 8.6-6 10.4-9 17.6c-0.4 0.6-11.9 4.1-18.1 4.3c-0.1-0.6-4.9-8.8-7-11.9c15.8 1.7 35-17.6 34.1-10z" />
					<path id="&lt;Path&gt;" class="s23" d="m313.3 504.7c12.9-3.4 17.9-7.7 19.8-11.8c0.8-3.9 2.5-5.8 2.9-6.5c4.9 0.4 12.4 0.6 11.2 8.1c-1.1 7.6-24.1 9.5-33.9 10.2z" />
					<path id="&lt;Path&gt;" class="s21" d="m310.7 501.2c22.5-2.7 17.8-14.6 26.2-16.4l-0.9 1.6c-0.4 0.7-2.1 2.6-2.9 6.5c-1.9 4.1-6.9 8.4-19.8 11.8z" />
					<path id="&lt;Path&gt;" class="s21" d="m247.5 504.8c-0.2-2.6-1.4-3.6-2.5-5.2c24.2 10.5 3.2 15.3 46.9 19.5c23.7 2.2 27.6 5.2 32.7 7.8c-6.7-1-18.9-6.2-31.4-4.5c-11.6 1.7-46.3-6.2-45.7-17.6z" />
				</g>
			</g>
			<g id="&lt;Group&gt;">
				<path id="&lt;Path&gt;" class="s20" d="m566.3 514c-0.4 0.7-11.7 4.5-17.8 4.7c0.3 0.3 3.4 7.2 4.5 10.7c-6.6-1.1-21.2-6.2-33.7-4.4c-11.6 1.6-48-6.4-47.4-17.8c-0.4-3.9 4.9-1.3 7.4-4h17.7c6.1 1.4 12.3 2.7 18.5 3.7c13.5 2.3 25.9 1 39.4 0.7c2.1-0.1 4.1-0.5 5.8-1.3c4.5 0.9 7.9 2.3 5.6 7.7z" />
				<g id="&lt;Group&gt;">
					<g id="&lt;Group&gt;">
						<path id="&lt;Path&gt;" class="s21" d="m481.4 490.4c8-4.8 3.3-12.2 7.2-13.7c11.9 3.1 51.8-15.9 58.1-8.9q15.4 18.1-15.9 34.1c-12.1-13.1-58-4.6-49.4-11.5z" />
						<path id="&lt;Path&gt;" class="s22" d="m550 510c-37.2 19.4-37.7-14.7-29.4-21.8c14.1-1.5 21-7 38.6-6.4c2.8 0.1 6-0.3 6.9-2c-10.4 12.8-6.4 24.2-16.1 30.2z" />
						<path id="&lt;Path&gt;" class="s21" d="m499 452.6c8-4.8 7.2-7.4 15.9-5.2c11.9 3.1 20.9 0.5 27.1 7.5q-7.9 14.3-16.1 16.9c-12.1-13-35.6-12.3-26.9-19.2z" />
						<path id="&lt;Path&gt;" class="s23" d="m533.5 458c1.8-0.7 2.1-12.8 11.1 0.3c6.7 9.7-18.4 21-34.6 8.6c-15.6-11.9-19.5-8.5-22.6-6.7c0.5-3.1 7.6-5.5 10.9-7.3c6.5-3.6 7.9 16.4 35.2 5.1z" />
						<g id="&lt;Group&gt;">
							<path id="&lt;Path&gt;" class="s23" d="m522.3 425c-11.1 18.1 10.5 16.7 11.1 32.2c11.9-24.1-20.3-13.2-11.1-32.2z" />
							<path id="&lt;Path&gt;" class="s22" d="m522.3 425c-9.3 15.5 11.9 18.3 11.1 32.2c-18-8.2-23.8-17.4-11.1-32.2z" />
							<path id="&lt;Path&gt;" class="s23" d="m527.7 449.3q7.3 3.4 5.7 7.9c-3.2-2.3-4.9 1.4-16.7-1.6c-19.9-5.1-14-17.2 5.6-30.6c-10.9 13.9-3 20.4 5.4 24.3z" />
							<path id="&lt;Path&gt;" class="s24" d="m521.3 425.8c-3.9 4.4-24.7 16.1 4.2 27.1c-13.6-9.2-13.5-15.2-4.2-27.1z" />
							<path id="&lt;Path&gt;" class="s22" d="m504.4 445.1c-0.1 4.4 3.7 7.9 12.4 10.1c11.8 3 12.9-0.6 16.6 2q-2.6 0.5-10.8 3.1c-8.7 2.8-21.1-4.2-18.2-15.2z" />
							<path id="&lt;Path&gt;" class="s24" d="m522.3 425c-4.7 12.6 10.2 8.8 13.3 20.2c-3.1-8.6-20.8-5-13.3-20.2z" />
						</g>
						<path id="&lt;Path&gt;" class="s22" d="m488.7 476.2c2.2-5.2-2.2-15.5-1.3-16c3.1-1.8 7-6.1 22.6 5.8c16.2 12.4 41.3 2 34.6-7.7c5.8 6.7-4.5 15.9-6 17.2c-24.8 21-51.5 4.5-49.9 0.7z" />
						<path id="&lt;Path&gt;" class="s23" d="m524.4 490.5c10.4 3.3 22.4 24.8 26.1 36.1c-5.1-2.6-15.9-20.8-39.9-20c-24.1 0.9-45-12.1-42-18.5c3.1-6.5 8.9-11.7 19.8-11.4c-0.7 11.5 25.5 10.4 36 13.8z" />
						<path id="&lt;Path&gt;" class="s24" d="m518.1 464.4c12.1 3.5 30.5 2.1 26.5-6.1c7.8 9.6-18.4 21.3-34.6 8.9c-15.6-11.9-19.5-8.8-22.6-7c5.1-6.4 17.7 0.3 30.7 4.2z" />
						<path id="&lt;Path&gt;" class="s24" d="m543.3 516.3c-2-2.5-18.3-15.3-40.7-16.5c-21.2-1.1-45-16.9-17.8-22.2c-7.5 6.6 1.8 14.2 14.6 15.3c14.6 1.3 26.6-4.8 43.9 23.4z" />
						<path id="&lt;Path&gt;" class="s22" d="m473.4 504.5c-0.5-5.2-4.5-4-4.9-14.1c1.8 6.8 21.2 15.4 42.6 14.6c24-0.8 34.3 19 39.4 21.6c-6.7-1.1-18.9-6.2-31.4-4.5c-11.6 1.7-46.3-6.2-45.7-17.6z" />
						<path id="&lt;Path&gt;" class="s23" d="m559.2 481.8c-17.6-0.6-21.1 9.9-38.6 6.4c7.1-2 24.7-12 26.1-20.4c22.7 0.7 21.9 14.3 12.5 14z" />
						<path id="&lt;Path&gt;" class="s24" d="m560.8 482.4q-5.2-0.2-14.3 1.2c0.1-2.3 9.8-3.5 13-5.9c4.1-3.1 0.7-7.3-12.8-9.9c22.7 0.7 23.5 14.9 14.1 14.6z" />
					</g>
					<path id="&lt;Path&gt;" class="s22" d="m573.1 494.2c-0.9 8.6-6 10.4-9 17.6c-0.4 0.6-11.9 4.1-18.1 4.3c-0.1-0.6-4.9-8.8-7-11.9c15.8 1.6 35-17.6 34.1-10z" />
					<path id="&lt;Path&gt;" class="s23" d="m539.2 504.4c12.9-3.4 17.9-7.7 19.8-11.8c0.8-3.9 2.5-5.8 2.9-6.5c4.9 0.3 12.4 0.6 11.2 8.1c-1.1 7.6-24.1 9.5-33.9 10.2z" />
					<path id="&lt;Path&gt;" class="s21" d="m536.6 500.9c22.5-2.7 17.8-14.6 26.2-16.4l-0.9 1.6c-0.4 0.7-2.1 2.6-2.9 6.5c-1.9 4.1-6.9 8.4-19.8 11.8z" />
					<path id="&lt;Path&gt;" class="s21" d="m473.4 504.5c-0.2-2.6-1.4-3.6-2.5-5.2c24.2 10.5 3.2 15.3 46.9 19.5c23.7 2.2 27.6 5.2 32.7 7.8c-6.7-1.1-18.9-6.2-31.4-4.5c-11.6 1.7-46.3-6.2-45.7-17.6z" />
				</g>
			</g>
			<g id="&lt;Group&gt;">
				<g id="&lt;Group&gt;">
					<path id="&lt;Path&gt;" class="s15" d="m200.1 476.4c2.8 5.8 5.9 13.6 5.4 16.3c-0.4 2-9.5 3.1-12.7 4.9c10.5-2.7 31.5-13.2 34.1-5.6c2 5.9 9.4 8.8 8.8 11.6c-0.7 2.7-3.5 9.3-12.3 12.8c-25.9 10.2-67.4 6-78.7-0.9c-5.5-4.8-6.8-12.2-5.1-20c0.9-4.6 10-14.2 15.3-17.4c17.4-11.5 41-10.2 45.2-1.7z" />
					<path id="&lt;Path&gt;" class="s17" d="m200.9 471.6c2.6 5.8 3.9 9 3.4 11.6c-0.4 2.1-7.5 7.8-10.5 9.7c9.9-2.8 34.6-14.2 37-6.6c1.8 5.8 3.5 13.2 2.9 15.9c-0.6 2.8-5.8 7.3-11 9.5c-21.8 9.2-72.6 5.1-76.3 1.1c-2.6-3.9-4.6-13.7-3-21.5c1-4.6 4.5-7.9 5.2-11.7c16.5-11.6 48.5-16.4 52.3-8z" />
					<path id="&lt;Path&gt;" class="s16" d="m149.3 478.1c2.1-1.5 8.1 0.3 10.9-1l-13.8 35.7c-3.6-4.1-4.6-13.7-3-21.5c1-4.6 3.2-9.2 5.9-13.2z" />
					<path id="&lt;Path&gt;" class="s16" d="m221.8 486.5c4.5-1.6 8.2-2.6 9-0.2c1.8 5.8 3.5 13.2 2.9 15.9c-0.4 1.7-2.6 4.2-5.4 6.3c-1.1-4.8-2.4-9.5-3.9-14.3q-1.2-3.9-2.6-7.7z" />
					<path id="&lt;Path&gt;" class="s18" d="m196 467.3c7.2 3.5 7 9 0.2 13.2c9.9-2.8 22.2-2.5 29.4 0.9c8.4 4 6.8 10.7-3.5 15.1c-21.9 9.1-61.1 2.5-70.5 2.7c1-4.2-14.3-20.9 10.4-31.2c10.4-4.4 25.6-4.7 34-0.7z" />
				</g>
				<g id="&lt;Group&gt;">
					<path id="&lt;Path&gt;" class="s19" d="m149.3 491.7c-2.4-7-3.8-16.8 12.7-23.7c10.4-4.4 25.6-4.7 34-0.7c4.8 2.3 6.2 5.5 4.7 8.6c-0.8-0.8-1.9-1.6-3.3-2.3c-8.4-4-23.6-3.7-34 0.7c-12 5-14.5 11.5-14.1 17.4z" />
				</g>
			</g>
			<g id="&lt;Group&gt;">
				<g id="&lt;Group&gt;">
					<path id="&lt;Path&gt;" class="s15" d="m420 483.7c2.9 5.8 6 13.8 5.5 16.5c-0.4 2.1-9.6 3.1-12.8 5c10.6-2.7 26.3-5.4 34.6-5.7c7-0.1 9.5 9 8.8 11.7c-0.6 2.8-3.5 9.5-12.4 13.1c-26.3 10.3-68.4 6-79.8-0.9c-5.7-4.9-6.9-12.4-5.2-20.3c1-4.7 10.2-14.5 15.5-17.7c17.6-11.6 41.6-10.3 45.8-1.7z" />
					<path id="&lt;Path&gt;" class="s17" d="m420 479.4c2.6 5.8 3.9 9 3.4 11.7c-0.4 2-7.5 7.7-10.4 9.6c9.8-2.8 34.5-14.2 36.9-6.6c1.9 5.9 3.6 13.2 2.9 16c-0.6 2.7-5.7 7.3-10.9 9.4c-21.9 9.2-72.7 5.2-76.4 1.2c-2.6-3.9-4.7-13.8-3-21.5c0.9-4.7 4.4-8 5.2-11.8c16.5-11.6 48.5-16.4 52.3-8z" />
					<path id="&lt;Path&gt;" class="s16" d="m368.3 485.9c2.2-1.5 8.2 0.3 10.9-1l-13.7 35.8c-3.6-4.1-4.7-13.8-3-21.5c0.9-4.7 3.1-9.3 5.8-13.3z" />
					<path id="&lt;Path&gt;" class="s16" d="m441 494.3c4.5-1.6 8.2-2.6 8.9-0.2c1.9 5.9 3.6 13.2 2.9 16c-0.4 1.7-2.5 4.1-5.3 6.2c-1.2-4.7-2.5-9.5-4-14.3q-1.2-3.9-2.5-7.7z" />
					<path id="&lt;Path&gt;" class="s18" d="m415.1 475.1c7.2 3.5 7 9 0.2 13.2c9.9-2.8 22.2-2.5 29.4 0.9c8.4 4 6.9 10.7-3.5 15.1c-21.9 9.2-61.1 2.5-70.6 2.7c1-4.2-14.2-20.8 10.5-31.2c10.4-4.4 25.6-4.7 34-0.7z" />
				</g>
				<g id="&lt;Group&gt;">
					<path id="&lt;Path&gt;" class="s19" d="m368.3 499.5c-2.4-7-3.8-16.8 12.8-23.7c10.4-4.4 25.6-4.7 34-0.7c4.8 2.3 6.2 5.5 4.7 8.6c-0.8-0.8-1.9-1.6-3.3-2.3c-8.4-4-23.6-3.7-34 0.7c-12 5-14.6 11.5-14.2 17.4z" />
				</g>
			</g>
		</g>
		<g id="&lt;Group&gt;">
			<path id="&lt;Path&gt;" class="s15" d="m187.9 455.8c0.1 0.7-1.7 1.5-3.9 1.7c-2.2 0.3-4-0.1-4.1-0.8c-0.1-0.8 1.7-1.5 3.9-1.8c2.2-0.2 4 0.2 4.1 0.9z" />
			<g id="&lt;Group&gt;">
				<g id="&lt;Group&gt;">
					<path id="&lt;Path&gt;" class="s25" d="m185.7 454.9c0.2 0.4-0.2 1.2-1.1 1.8c-0.9 0.6-1.8 0.7-2 0.3l-86-127.7c-0.2-0.4 0.2-1.2 1.1-1.8c0.9-0.5 1.8-0.7 2.1-0.3z" />
					<path id="&lt;Path&gt;" class="s26" d="m183.9 455.3c0.2 0.3 0.1 0.7-0.2 0.9c-0.2 0.2-0.6 0.1-0.8-0.2l-80.2-119.3c-0.2-0.2-0.2-0.6 0.1-0.8c0.3-0.2 0.7-0.1 0.9 0.2z" />
				</g>
				<g id="&lt;Group&gt;">
					<path id="&lt;Path&gt;" class="s27" d="m74.4 282.3l15.9 9.1l16.4-7.9c6.7-3.2 10.8 0 9.3 7.2l-3.7 17.9l12.6 13.2c5.1 5.3 3.2 10.3-4.1 11.1l-18.1 2l-8.7 16c-3.5 6.5-8.8 6.3-11.8-0.4l-7.5-16.6l-17.9-3.3c-7.3-1.3-8.7-6.4-3.3-11.4l13.6-12.2l-2.5-18.1c-1-7.3 3.4-10.3 9.8-6.6z" />
					<path id="&lt;Path&gt;" class="s28" d="m93.2 327.4c-1.4 4.1-2.6 8.4-3.3 12.6c-0.4 2.1 0.3 4.9-1.5 6.5c-2.2 1.9-4.1-2-4.9-3.6c-1.6-3.2-2.4-7.1-4.6-10c-2.7-3.4-5.9-2.8-9.7-3.1c-2.2-0.2-4.2-0.7-6.4-1.1c-1.8-0.3-5.4 0.4-6.7-1.4c-1.3-1.9 3-5.1 4.3-6.1c2.6-2.2 5-4.6 7.5-6.8c1.7-1.4 5-3.2 5.5-5.3c0.6-2.4 0.1-6.2-0.2-8.5c-0.3-3.3-1.6-6.5-2.4-9.6c-0.9-3.2-0.9-5.1 2.8-3.5c3.5 1.6 6.8 3.9 9.8 6.1c3.5 2.6 7 4.1 11 1.9c2.2-1.3 4.6-2.1 6.9-3.2c1.8-0.7 4.5-2.5 6.5-2.3c2.8 0.4 0.4 3.9-0.6 5.2c-2 2.9-3.8 5.8-5.6 8.9c-1 1.7-2.2 3.3-2.9 5.2c-0.6 1.7-0.4 3.3-0.8 5c-0.9 4-2.6 7.8-4.1 11.6q-0.3 0.7-0.6 1.5z" />
					<path id="&lt;Path&gt;" class="s29" d="m72 308.2c-0.7 1.4-1.8 2.6-3.5 3.7c-5.9 3.8-10 9.1-15.4 13.4c-0.8-1.5 1.1-3.3 2.1-4.2c3.9-3.6 7.7-7.3 11.7-10.7c3.3-2.8 2.3-5.3 1.9-9.1q-0.6-5.2-1.4-10.4q-0.1-1.2-0.3-2.3c-0.2-1.5-0.4-4 1-5c0.4 1.3 0.3 3 0.5 4.4c0.2 1.6 0.5 3.2 0.8 4.7c0.5 3.7 1.7 7 2.7 10.5c0.5 1.9 0.4 3.6-0.1 5z" />
					<path id="&lt;Path&gt;" class="s30" d="m100.8 331.6c1.4-0.8 3-1 5-0.9c7 0.6 13.5-1.2 20.4-1.4c-0.2 1.7-2.8 2-4.2 2.1c-5.3 0.5-10.5 1.2-15.8 1.5c-4.3 0.2-5.1 2.8-7 6.1q-2.7 4.5-5.2 9.1q-0.6 1-1.2 2.1c-0.7 1.3-2 3.4-3.8 3.3c0.5-1.3 1.7-2.6 2.4-3.8c0.7-1.4 1.4-2.8 2.2-4.2c1.8-3.3 2.8-6.6 4.1-10c0.8-1.9 1.8-3.1 3.1-3.9z" />
					<path id="&lt;Path&gt;" class="s29" d="m96.8 291.8c-1.4 0.7-4 2.1-5.4 1.1c-0.8-0.6 4.9-3 5.4-3.3c2.1-1 4.2-2 6.1-3.1c2.6-1.5 7.7-5 10.8-3c2.4 1.5-1.2 2.2-2.4 2.3c-2.9 0.5-5 1.8-7.6 2.9q-1.5 0.6-3 1.3q-2 0.9-3.9 1.8z" />
					<path id="&lt;Path&gt;" class="s29" d="m80.7 340.1q0.7 1.5 1.4 2.9c1.3 2.6 2.1 4.9 4 7.1c0.8 0.9 3.2 3.7 0.4 3.3c-3.7-0.5-5.4-6.4-6.4-9.2c-0.8-2.1-1.8-4.2-2.7-6.3c-0.2-0.6-3-6.1-2-6c1.7 0.1 2.8 2.9 3.4 4.2q0.9 2.1 1.9 4z" />
					<path id="&lt;Path&gt;" class="s30" d="m113.4 296.6q-0.4 1.5-0.8 3.1c-0.7 2.8-1.6 5.1-1.6 8c0 1.2 0 4.9-1.9 2.8c-2.5-2.8 0.1-8.4 1.2-11.2c0.8-2.1 1.4-4.3 2.1-6.5c0.2-0.6 1.6-6.6 2.4-5.9c1.2 1.2 0.2 4.1-0.2 5.5q-0.7 2.1-1.2 4.2z" />
				</g>
			</g>
		</g>
		<g id="&lt;Group&gt;">
			<path id="&lt;Path&gt;" class="s15" d="m454.8 414c0 0.7-1.8 1.3-4 1.3c-2.2 0-4-0.5-4-1.3c0-0.7 1.8-1.3 4-1.3c2.2 0 4 0.6 4 1.3z" />
			<g id="&lt;Group&gt;">
				<g id="&lt;Group&gt;">
					<path id="&lt;Path&gt;" class="s25" d="m453 414.4c-0.1 0.5-1 0.7-2.1 0.5c-1-0.3-1.7-0.8-1.6-1.3l33.4-150.3c0.1-0.5 1-0.7 2-0.4c1 0.2 1.8 0.8 1.7 1.2z" />
					<path id="&lt;Path&gt;" class="s26" d="m451.5 413.4c-0.1 0.3-0.4 0.5-0.8 0.5c-0.3-0.1-0.5-0.4-0.4-0.8l31.2-140.3c0-0.3 0.4-0.5 0.7-0.5c0.3 0.1 0.5 0.4 0.5 0.8z" />
				</g>
				<g id="&lt;Group&gt;">
					<path id="&lt;Path&gt;" class="s31" d="m501.5 214.8l4.3 17.7l17.1 6.5c6.9 2.6 7.4 7.9 1.1 11.8l-15.5 9.6l-0.9 18.2c-0.4 7.4-5.2 9.5-10.9 4.7l-13.9-11.8l-17.6 4.8c-7.1 1.9-10.6-2-7.8-8.8l6.9-16.9l-10-15.3c-4-6.2-1.3-10.7 6-10.2l18.2 1.4l11.4-14.2c4.7-5.8 9.8-4.6 11.6 2.5z" />
					<path id="&lt;Path&gt;" class="s32" d="m481.7 259.5c-3.9 1.8-7.9 3.8-11.4 6.3c-1.7 1.1-3.3 3.5-5.7 3.3c-2.9-0.2-1.4-4.2-0.8-5.9c1.2-3.5 3.5-6.6 4-10.3c0.6-4.3-2-6.2-4.4-9.2c-1.3-1.7-2.4-3.5-3.6-5.3c-1-1.6-4-3.7-3.5-5.8c0.4-2.4 5.7-1.4 7.3-1.2c3.3 0.4 6.8 0.5 10.1 0.9c2.2 0.2 5.7 1.3 7.7 0.2c2-1.2 4.5-4.1 6-6c2.1-2.5 3.6-5.6 5.3-8.4c1.7-2.8 3.1-4.1 4.4-0.3c1.3 3.7 1.9 7.6 2.4 11.4c0.5 4.2 1.8 7.9 6.2 9.1c2.4 0.8 4.7 1.9 7 2.9c1.8 0.8 5 1.5 6.2 3.1c1.7 2.3-2.6 3-4.2 3.2c-3.4 0.5-6.9 1.2-10.3 2c-1.9 0.5-3.9 0.7-5.8 1.5c-1.6 0.7-2.7 2-4.2 2.9c-3.5 2.1-7.4 3.5-11.1 5q-0.8 0.3-1.6 0.6z" />
					<path id="&lt;Path&gt;" class="s33" d="m481 230.8c-1.4 0.6-3.1 0.6-5.1 0.1c-6.7-1.6-13.4-1-20.3-1.9c0.5-1.6 3.1-1.5 4.5-1.4c5.3 0.4 10.6 0.6 15.8 1.1c4.3 0.5 5.5-2 7.9-4.9q3.4-4 6.6-8.1q0.7-0.9 1.5-1.9c0.9-1.1 2.6-3 4.3-2.6c-0.7 1.1-2.1 2.2-2.9 3.3c-1 1.3-1.9 2.6-2.9 3.8c-2.3 3-3.8 6.1-5.7 9.2c-1.1 1.7-2.3 2.8-3.7 3.3z" />
					<path id="&lt;Path&gt;" class="s16" d="m483.9 267.9c1.5 0.5 2.9 1.5 4.1 3.1c4.4 5.3 10.1 8.9 15 13.7c-1.3 1.1-3.3-0.6-4.4-1.6c-3.9-3.5-8.1-6.8-11.9-10.4c-3.1-3-5.6-1.7-9.3-0.9q-5.1 1.2-10.1 2.6q-1.2 0.2-2.3 0.5c-1.5 0.4-3.9 0.9-5-0.5c1.2-0.5 2.9-0.5 4.3-0.9c1.5-0.4 3-0.9 4.6-1.3c3.6-0.9 6.7-2.5 10.1-3.8c1.8-0.8 3.4-0.9 4.9-0.5z" />
					<path id="&lt;Path&gt;" class="s33" d="m509.9 237.6c-1.4-0.5-4.2-1.4-4.4-3.2c-0.2-1 5.5 1.5 6.1 1.7c2.2 0.8 4.3 1.6 6.5 2.3c2.8 0.8 8.8 2.1 9.6 5.7c0.5 2.8-2.5 0.6-3.4-0.1c-2.3-1.8-4.7-2.4-7.3-3.6q-1.5-0.6-3-1.2q-2-0.9-4.1-1.6z" />
					<path id="&lt;Path&gt;" class="s33" d="m463.8 259.2q-0.5 1.5-1 3c-1 2.7-2.2 4.9-2.4 7.8c-0.1 1.2-0.5 4.9-2.2 2.6c-2.2-3.1 1-8.4 2.3-11c1-2 1.8-4.2 2.7-6.3c0.3-0.6 2.3-6.4 3-5.6c1.1 1.3-0.2 4-0.7 5.4q-0.9 2-1.7 4.1z" />
					<path id="&lt;Path&gt;" class="s16" d="m518 252.9q-1.5 0.8-2.9 1.6c-2.5 1.4-4.8 2.3-6.8 4.3c-0.9 0.9-3.6 3.4-3.3 0.6c0.2-3.8 6.1-5.7 8.9-6.9c2-0.8 4.1-1.9 6.1-2.9c0.6-0.3 5.9-3.4 5.9-2.4c0 1.8-2.7 3-4.1 3.7q-1.9 0.9-3.8 2z" />
				</g>
			</g>
		</g>
		<g id="&lt;Group&gt;">
			<path id="&lt;Path&gt;" class="s15" d="m598.5 466.9c-0.1 1.1-3.3 1.9-7.3 1.7c-4-0.2-7.1-1.3-7.1-2.4c0.1-1.2 3.3-1.9 7.3-1.8c4 0.2 7.2 1.3 7.1 2.5z" />
			<g id="&lt;Group&gt;">
				<g id="&lt;Group&gt;">
					<path id="&lt;Path&gt;" class="s34" d="m591.8 466.7c-0.2 0.7-1.5 0.9-2.8 0.4c-1.4-0.4-2.4-1.3-2.2-1.9l63.8-203.2c0.2-0.6 1.5-0.8 2.8-0.4c1.4 0.5 2.3 1.3 2.1 2z" />
					<path id="&lt;Path&gt;" class="s35" d="m589.9 465.2c-0.2 0.4-0.7 0.7-1.1 0.5c-0.5-0.1-0.7-0.6-0.6-1l59.6-189.8c0.1-0.4 0.6-0.7 1-0.5c0.5 0.1 0.7 0.6 0.6 1.1z" />
				</g>
				<g id="&lt;Group&gt;">
					<path id="&lt;Path&gt;" class="s36" d="m682.2 197.4l3.9 24.9l22.7 11c9.2 4.4 9.3 11.7 0.2 16.3l-22.5 11.4l-3.4 25c-1.4 10.1-8.3 12.5-15.5 5.2l-17.8-17.9l-24.8 4.6c-10.1 1.8-14.4-4.1-9.8-13.2l11.5-22.4l-11.9-22.2c-4.9-9-0.6-15 9.4-13.3l25 4l17.4-18.3c7-7.4 14-5.2 15.6 4.9z" />
					<path id="&lt;Path&gt;" class="s37" d="m649.7 256.7c-5.6 1.9-11.3 4.3-16.5 7.2c-2.5 1.5-5 4.6-8.3 4c-3.9-0.6-1.4-6.1-0.4-8.3c2.1-4.6 5.7-8.7 6.8-13.7c1.4-5.8-2-8.7-4.9-13.2c-1.7-2.5-3-5.1-4.4-7.7c-1.2-2.3-5.1-5.6-4.2-8.5c0.9-3.1 8.1-1.2 10.2-0.7c4.6 1 9.3 1.5 13.9 2.4c3 0.5 7.7 2.5 10.5 1.2c3-1.4 6.7-5.2 9-7.5c3.2-3.2 5.6-7.3 8.2-11c2.7-3.7 4.8-5.3 6.3 0.1c1.3 5.2 1.6 10.6 1.8 15.9c0.3 6 1.6 11.1 7.5 13.4c3.3 1.3 6.2 3.2 9.4 4.8c2.3 1.3 6.6 2.6 8.1 5c2 3.4-3.9 3.8-6.1 3.9c-4.9 0.3-9.7 0.9-14.4 1.6c-2.8 0.4-5.6 0.5-8.2 1.3c-2.4 0.8-3.9 2.5-6.1 3.5c-5.1 2.5-10.6 3.9-16 5.6q-1.1 0.3-2.2 0.7z" />
					<path id="&lt;Path&gt;" class="s38" d="m652.1 217.1c-2.1 0.6-4.4 0.4-7-0.5c-9.2-3.1-18.5-3-27.8-5.1c0.9-2.2 4.4-1.7 6.4-1.3c7.2 1.1 14.5 2 21.6 3.4c5.9 1.1 7.8-2.1 11.5-5.9c3.4-3.4 6.7-6.9 10-10.4q1.1-1.2 2.3-2.4c1.4-1.5 3.9-3.8 6.2-3.1c-1.1 1.5-3.1 2.8-4.4 4.2c-1.5 1.6-2.9 3.3-4.4 4.9c-3.5 3.8-6 7.9-9 12.1c-1.6 2.2-3.4 3.5-5.4 4.1z" />
					<path id="&lt;Path&gt;" class="s39" d="m651.7 268.5c2 0.8 3.8 2.4 5.3 4.7c5.4 7.9 12.9 13.5 19.1 20.7c-2 1.3-4.6-1.3-5.9-2.7c-5.1-5.3-10.3-10.4-15.2-15.8c-4-4.4-7.5-3-12.7-2.2c-4.8 0.6-9.5 1.4-14.3 2.2q-1.6 0.3-3.2 0.5c-2.1 0.4-5.5 0.7-6.9-1.2c1.8-0.6 4.2-0.4 6.1-0.8c2.2-0.3 4.3-0.8 6.5-1.2c5.1-0.9 9.5-2.7 14.4-4.2c2.6-0.8 4.8-0.7 6.8 0z" />
					<path id="&lt;Path&gt;" class="s38" d="m691.2 229.8c-1.9-0.9-5.7-2.5-5.8-4.9c-0.1-1.4 7.4 2.7 8.2 3c2.9 1.3 5.7 2.8 8.7 3.9c3.8 1.5 12 4 12.5 9.1c0.4 3.9-3.4 0.5-4.6-0.6c-2.9-2.8-6.1-3.9-9.6-5.8q-2-1-4-2.1q-2.7-1.3-5.4-2.6z" />
					<path id="&lt;Path&gt;" class="s38" d="m625.1 254.1q-0.9 2-1.9 4c-1.6 3.7-3.5 6.5-4.1 10.5c-0.3 1.6-1.3 6.6-3.3 3.3c-2.7-4.4 2.3-11.4 4.4-14.9c1.7-2.6 3-5.5 4.5-8.3c0.4-0.8 3.9-8.6 4.7-7.4c1.4 2-0.7 5.5-1.6 7.4q-1.4 2.7-2.7 5.4z" />
					<path id="&lt;Path&gt;" class="s39" d="m700.4 251.8q-2 0.9-4.1 1.9c-3.6 1.6-6.8 2.6-9.9 5.2c-1.3 1-5.3 4.2-4.7 0.3c0.9-5.1 9.2-7.1 13.1-8.3c3-1 5.9-2.3 8.8-3.4c0.8-0.3 8.6-3.9 8.4-2.5c-0.2 2.4-4.1 3.7-6 4.5q-2.8 1.1-5.6 2.3z" />
				</g>
			</g>
		</g>
		<path id="&lt;Path&gt;" class="s15" d="m408.2 446.7c3.3 1.9 7.7 5.5 2.9 8.5c-5.7 3.5-12.5 3.6-19 3.6c-2 0.1-4.3-0.1-6.1 0.5c-2.1 0.7-3.9 2.1-6 2.7c-5.3 1.6-10.5-1.6-15.1-3.6c-2.8-1.3-5.5-2.5-8.2-4c-1.6-0.9-3.4-1.2-4-3.2c-1.1-3.9 6-6.9 8.7-8c5.9-2.4 12.1-3.8 18.5-3.7c9.5 0.2 19.9 2.5 28.3 7.2z" />
		<g id="&lt;Group&gt;">
			<path id="&lt;Path&gt;" class="s40" d="m405.2 65.5c-1.1 6.1-4.9 13.2-8.8 18c-5.8 7.1-17.7 13.2-24.7 4c-5.6-7.4-3.8-18.9-1.6-27.2c2-7 4.1-14 5.1-21.3c0.8-5.9 0.5-11.9 1.5-17.7c2.5-14 13.3-3.8 18.1 3.2c8 11.8 13.2 26.8 10.4 41z" />
			<path id="&lt;Path&gt;" class="s41" d="m403 65c-1 3.7-2.7 7.2-4.6 10.5c-3.1 5.6-5.9 9.9-12.3 12.2c-4.3 1.6-8.8 0-12.2-2.8c-9.6-8.1-2.2-21.9 0.7-31.3c0.8-2.6 1.9-7 3.9-9c0.5 2.1 1.6 11 4 11.5c3.6 0.7 3.4-8.7 3.7-10.7c0.8 0.6 1.8 2.8 2.8 2.6c1.5-0.3 1.3-4 1.3-5c0-2.6 0.1-5.2-0.3-7.7c-0.3-2.3-1-4.6-0.8-7c2.7 0.4 4.3 8.4 5.2 10.7c0.9 2.4 1.7 4.7 2.5 7.1c0.4 1.4 0.5 3.6 1.4 4.7c0.2-0.6 0.6-3.6 1.4-3.7c0.8-0.1 1 2.3 1.3 2.9c0.5-0.4 0.8-1.1 1.3-1.6c1.1 3 1.5 5.8 1.6 9c0.1 2.6-0.2 5.1-0.9 7.6z" />
			<g id="&lt;Group&gt;">
				<g id="&lt;Group&gt;">
					<path id="&lt;Path&gt;" class="s42" d="m381 109.4c-0.4-0.6-8.6-13.7 1.4-35.9l2.7 1.2c-9.2 20.6-1.7 32.9-1.6 33.1z" />
				</g>
				<path id="&lt;Path&gt;" class="s27" d="m411.1 450.2c0 3.9-8.7 6-25.4 5.6c-2.5 0-9.8 5-12.4 3.4c-10.5-6.2-18.9-5.1-18.9-9c-0.1-11.2-0.1-22.5-0.1-33.7c0.1-27.1-0.2-54.2 0-81.2c0.2-32.3-0.7-64.5-0.1-96.8c0.5-26.6-1.5-53.5 0.1-80c0.4-7.8 0.8-16.4 0.1-23.9c-1.3-15.4 21-37.6 37-28c8.7 5.2 17.7 12.5 19.4 23c1 6.8-0.1 17 0.2 23.9c0.9 25.5 0.4 51.2 0.1 76.7c-0.7 59.6 0.1 119.3 0 178.9q0 20.5 0 41.1z" />
				<path id="&lt;Compound Path&gt;" fill-rule="evenodd" class="s43" d="m411.3 214.7q-0.1 7.7-0.2 15.5c0 5.2 0 10.4-0.1 15.7c-3.9 10.7-11.7 23.2-27.7 31.5c-15 7.8-24 14.7-29.1 22.3q-0.1-15.1-0.1-30.2c5.1-7.7 14-14.6 29.2-22.5c16.4-8.5 24.2-21.4 28-32.3zm-0.2 174.7q0 9.9 0 19.7q0 5.3 0 10.6c-3.9 10.7-11.7 23.4-27.8 31.7c-4.9 2.5-7.5 4.8-11.2 7.1c-9.9-4.5-17.7-4.8-17.7-8.3q0-3.6-0.1-7.1c5.2-7.6 14.1-14.4 29-22.1c16.1-8.3 23.9-20.9 27.8-31.6zm-8.5-274.4c4.1 4 7.2 8.8 8.2 14.6c0 0.2 0 0.5 0 0.8c-3.9 10.6-11.7 22.8-27.5 31c-15.5 8.1-24.5 15.1-29.6 23c0-8.7 0.1-17.3 0.6-25.9q0.1-2.8 0.3-5.7c5.2-7.5 14-14.2 28.7-21.8c8.6-4.4 14.7-10.1 19.3-16zm8.5 42.4c0.3 9.7 0.4 19.5 0.4 29.2c-3.8 11-11.5 24.2-28.2 32.8c-15 7.8-23.9 14.6-29.1 22.2q0-1.5 0-3.1c0.2-9 0.1-18-0.1-27.1c5.1-7.7 14.1-14.6 29.2-22.4c16-8.3 23.9-20.9 27.8-31.6zm-0.2 174.4q0.1 15 0.1 30.1c-3.9 10.7-11.7 23.2-27.7 31.5c-14.9 7.7-23.8 14.6-29 22.1q0-15.2 0-30.3c5.1-7.6 14-14.4 29-22.2c15.9-8.2 23.7-20.6 27.6-31.2zm0-27.5c-4 10.6-11.8 22.9-27.6 31.1c-15 7.8-23.9 14.6-29 22.2c0-7.5-0.1-14.9 0-22.3q0-4 0-8.1c5.1-7.6 14.1-14.4 29-22.2c15.8-8.2 23.6-20.4 27.5-31q0 15.1 0.1 30.3z" />
				<path id="&lt;Path&gt;" class="s44" d="m371 447.6c0 2.9-2.4 5.2-5.2 5.2c-2.9 0-5.3-2.3-5.3-5.2v-309.8c0-2.9 2.4-5.2 5.3-5.2c2.8 0 5.2 2.3 5.2 5.2z" />
				<path id="&lt;Path&gt;" class="s45" d="m407.8 447.6c0 2.9-2.4 5.2-5.3 5.2c-2.9 0-5.2-2.3-5.2-5.2v-309.8c0-2.9 2.3-5.2 5.2-5.2c2.9 0 5.3 2.3 5.3 5.2z" />
				<path id="&lt;Path&gt;" class="s44" d="m397.6 124.3c0.4 2.6-3.8 5.4-9.3 6.2c-5.5 0.7-10.3-0.8-10.7-3.5c-0.1-0.8 0.3-1.7 1.1-2.6c-8.3 4-16.5 4-18.4 0c-2-4.1 3.2-10.7 11.6-14.9c8.5-4.1 16.9-4.2 18.9-0.1c1.6 3.3-1.6 8.3-7.3 12.3q1.6-0.6 3.4-0.9c5.6-0.7 10.3 0.8 10.7 3.5z" />
				<g id="&lt;Group&gt;">
					<path id="&lt;Path&gt;" class="s46" d="m378.4 101.9c-0.6-1.1-0.7-3.1-0.8-4.3c-0.2-2.3-0.1-4.5-0.1-6.8c0-3.2 0.2-6.6 0.7-9.8c0.6-3.4 1.2-7.5 3.3-10.4c2.2-3.2 6.5 0.6 5.8 3.6c-0.3 1.5-1.2 2.8-1.8 4.1c-1.3 2.3-2.8 4.7-3.8 7.2c-0.9 2.2-0.6 5.1-0.6 7.5c0 0.8-0.1 3.5 0 7.8c-0.9-0.6-1.2-8.7-1.2-9.8c-1.1 1-1.1 3.8-1.3 5.2c-0.1 1.1 0.5 5-0.2 5.7z" />
				</g>
			</g>
		</g>
		<g id="&lt;Group&gt;">
			<path id="&lt;Path&gt;" class="s15" d="m348.1 434c-2.6 3.5-13.5 5.4-24.4 4.3c-10.9-1.1-17.6-4.9-15-8.4c2.6-3.5 13.5-5.4 24.4-4.3c10.8 1.1 17.6 4.9 15 8.4z" />
			<path id="&lt;Path&gt;" class="s47" d="m346.1 432.8c-2.5 2.9-9.4 5.3-22.5 4.2c-9.8-0.9-14.9-3.8-14.1-7.6c0.4-1.6 1.4-3.7 2.9-5.4c4-4.6 22.9 0.1 31.6 1q2.5 3.8 2.7 6.2q0.1 0.8-0.6 1.6z" />
			<path id="&lt;Path&gt;" class="s48" d="m342 435.4c-3.8 1.5-9.7 2.3-18.4 1.6q-3.9-0.4-6.8-1.1c2.1-4.5 4.1-9.1 5.9-13.7c4.6 0.2 10 1.1 14.6 1.9q2.2 5.7 4.7 11.3z" />
			<path id="&lt;Path&gt;" class="s49" d="m343.8 427.3c-2.3 2.6-11.2 3.9-19.8 3c-8.7-0.9-13.9-3.7-11.6-6.3c2.2-2.6 11.1-4 19.8-3.1c8.7 0.9 13.9 3.8 11.6 6.4z" />
			<path id="&lt;Path&gt;" class="s50" d="m318.8 429.5c-5.4-1.3-8.2-3.5-6.4-5.5c2.2-2.6 11.1-4 19.8-3.1c7.9 0.9 12.8 3.3 12 5.6c-0.6-1.8-4.8-3.6-11-4.2c-7.9-0.8-16 0.4-18.1 2.8c-1.4 1.6 0.2 3.2 3.7 4.4z" />
		</g>
		<g id="&lt;Group&gt;">
			<path id="&lt;Path&gt;" class="s15" d="m499.1 449.7c-1.8 2.2-9 3.2-16 2.2c-7.1-1-11.4-3.6-9.6-5.8c1.7-2.2 8.9-3.2 16-2.2c7.1 1 11.4 3.6 9.6 5.8z" />
			<path id="&lt;Path&gt;" class="s51" d="m497.8 448.9c-1.7 1.8-6.2 3.2-14.8 2.2c-6.4-0.8-9.6-2.8-9-5.3c0.3-1 1-2.4 2-3.5c2.7-2.8 15 0.7 20.6 1.5q1.6 2.5 1.7 4.1q0 0.5-0.5 1z" />
			<path id="&lt;Path&gt;" class="s52" d="m495.1 450.5c-2.5 0.9-6.4 1.3-12.1 0.6q-2.5-0.3-4.4-0.9c1.5-2.9 2.9-5.8 4.2-8.8c3 0.3 6.5 1 9.5 1.6q1.3 3.8 2.8 7.5z" />
			<path id="&lt;Path&gt;" class="s53" d="m496.4 445.2c-1.5 1.7-7.3 2.3-13 1.5c-5.6-0.8-8.9-2.7-7.4-4.4c1.6-1.6 7.4-2.3 13-1.5c5.7 0.8 9 2.8 7.4 4.4z" />
			<path id="&lt;Path&gt;" class="s54" d="m480.1 446.1c-3.5-1-5.3-2.5-4.1-3.8c1.6-1.6 7.4-2.3 13-1.5c5.2 0.7 8.3 2.4 7.7 4c-0.3-1.3-3-2.5-7-3.1c-5.2-0.7-10.5-0.1-11.9 1.4c-1 1 0 2.1 2.3 3z" />
		</g>
		<g id="&lt;Group&gt;">
			<path id="&lt;Path&gt;" class="s15" d="m368.9 474.7c-1.4 1.7-6.7 2.5-12 1.7c-5.3-0.7-8.5-2.7-7.2-4.4c1.3-1.6 6.7-2.4 12-1.6c5.3 0.7 8.5 2.7 7.2 4.3z" />
			<path id="&lt;Path&gt;" class="s55" d="m367.9 474.1c-1.3 1.4-4.7 2.5-11 1.7c-4.8-0.6-7.2-2.1-6.8-4c0.2-0.8 0.8-1.8 1.5-2.6c2-2.1 11.2 0.5 15.4 1.1q1.2 1.9 1.2 3.1q0.1 0.4-0.3 0.7z" />
			<path id="&lt;Path&gt;" class="s56" d="m365.9 475.3c-1.9 0.7-4.8 1-9 0.5q-1.9-0.3-3.3-0.7c1.1-2.2 2.1-4.3 3.1-6.6c2.3 0.2 4.8 0.8 7.1 1.2q0.9 2.8 2.1 5.6z" />
			<path id="&lt;Path&gt;" class="s57" d="m366.9 471.4c-1.2 1.2-5.5 1.7-9.7 1.1c-4.3-0.6-6.7-2-5.6-3.3c1.2-1.2 5.5-1.7 9.7-1.1c4.3 0.6 6.7 2.1 5.6 3.3z" />
			<path id="&lt;Path&gt;" class="s58" d="m354.7 472c-2.7-0.7-4-1.8-3.1-2.8c1.2-1.2 5.5-1.7 9.7-1.1c3.9 0.5 6.2 1.8 5.8 2.9c-0.2-0.9-2.3-1.8-5.3-2.2c-3.8-0.6-7.8-0.1-8.9 1c-0.7 0.8 0.1 1.6 1.8 2.2z" />
		</g>
		<g id="&lt;Group&gt;">
			<path id="&lt;Path&gt;" class="s15" d="m223.4 453.3c-1.6 2.3-8.7 3.8-15.8 3.3c-7.2-0.5-11.6-2.8-10-5.2c1.6-2.3 8.7-3.8 15.8-3.3c7.2 0.5 11.6 2.8 10 5.2z" />
			<path id="&lt;Path&gt;" class="s59" d="m222.1 452.5c-1.6 2-6 3.7-14.6 3.2c-6.5-0.3-9.8-2.1-9.3-4.6c0.1-1.1 0.8-2.5 1.7-3.6c2.5-3.1 14.9-0.4 20.7 0q1.7 2.4 1.9 4q0 0.5-0.4 1z" />
			<path id="&lt;Path&gt;" class="s60" d="m219.5 454.3c-2.5 1.1-6.3 1.7-12 1.4q-2.6-0.1-4.5-0.5c1.3-3 2.5-6.1 3.6-9.1c3 0.1 6.5 0.5 9.5 0.9q1.6 3.7 3.4 7.3z" />
			<path id="&lt;Path&gt;" class="s61" d="m220.5 449c-1.5 1.7-7.2 2.8-12.9 2.4c-5.7-0.4-9.1-2.2-7.7-3.9c1.4-1.7 7.2-2.8 12.9-2.4c5.7 0.4 9.1 2.1 7.7 3.9z" />
			<path id="&lt;Path&gt;" class="s62" d="m204.2 450.9c-3.6-0.7-5.4-2-4.3-3.4c1.4-1.7 7.2-2.8 12.9-2.4c5.1 0.3 8.4 1.8 7.9 3.4c-0.4-1.2-3.2-2.3-7.2-2.6c-5.2-0.3-10.5 0.7-11.8 2.2c-0.9 1.1 0.2 2.1 2.5 2.8z" />
		</g>
		<g id="&lt;Group&gt;">
			<path id="&lt;Path&gt;" class="s15" d="m461.5 432.8c-1.6 2.4-8.7 3.9-15.8 3.4c-7.1-0.5-11.6-2.9-10-5.2c1.6-2.4 8.7-3.8 15.8-3.3c7.2 0.5 11.6 2.8 10 5.1z" />
			<path id="&lt;Path&gt;" class="s63" d="m460.2 432.1c-1.6 1.9-6 3.7-14.6 3.2c-6.4-0.4-9.8-2.2-9.3-4.7c0.2-1 0.8-2.4 1.7-3.5c2.5-3.1 15-0.4 20.7 0q1.7 2.4 1.9 4q0 0.5-0.4 1z" />
			<path id="&lt;Path&gt;" class="s64" d="m457.6 433.9c-2.5 1-6.3 1.7-12 1.4q-2.6-0.1-4.5-0.6c1.3-3 2.5-6 3.6-9.1c3 0.1 6.5 0.6 9.5 1q1.6 3.7 3.4 7.3z" />
			<path id="&lt;Path&gt;" class="s65" d="m458.6 428.5c-1.5 1.8-7.2 2.9-12.9 2.4c-5.7-0.4-9.1-2.1-7.7-3.8c1.4-1.8 7.2-2.9 12.9-2.5c5.7 0.5 9.1 2.2 7.7 3.9z" />
			<path id="&lt;Path&gt;" class="s66" d="m442.3 430.5c-3.6-0.7-5.4-2.1-4.3-3.4c1.4-1.8 7.2-2.9 12.9-2.5c5.1 0.4 8.4 1.9 7.9 3.5c-0.4-1.3-3.2-2.3-7.2-2.6c-5.2-0.4-10.5 0.6-11.8 2.2c-0.9 1.1 0.2 2.1 2.5 2.8z" />
		</g>
		<g id="&lt;Group&gt;">
			<path id="&lt;Path&gt;" class="s15" d="m584.6 454.7c-1.5 1.6-7 2-12.4 0.8c-5.3-1.1-8.5-3.4-7-5c1.5-1.6 7-2 12.4-0.8c5.3 1.1 8.5 3.3 7 5z" />
			<path id="&lt;Path&gt;" class="s67" d="m583.7 454c-1.4 1.3-5 2.1-11.5 0.8c-4.8-0.9-7.2-2.6-6.5-4.5c0.2-0.8 0.8-1.8 1.6-2.5c2.3-2.1 11.5 1.3 15.8 2.2q1 2 1 3.2q0 0.4-0.4 0.8z" />
			<path id="&lt;Path&gt;" class="s68" d="m581.5 455c-2 0.6-4.9 0.7-9.3-0.2q-1.9-0.3-3.3-0.9c1.3-2.1 2.6-4.3 3.7-6.5c2.3 0.4 4.9 1.1 7.2 1.7q0.7 3 1.7 5.9z" />
			<path id="&lt;Path&gt;" class="s69" d="m582.8 451.1c-1.2 1.2-5.7 1.4-10 0.5c-4.3-1-6.7-2.6-5.5-3.8c1.3-1.2 5.8-1.4 10.1-0.5c4.3 0.9 6.7 2.6 5.4 3.8z" />
			<path id="&lt;Path&gt;" class="s70" d="m570.3 450.8c-2.7-0.9-3.9-2.1-3-3c1.3-1.2 5.8-1.4 10.1-0.5c3.9 0.8 6.2 2.3 5.7 3.4c-0.2-0.9-2.2-2-5.3-2.7c-3.9-0.8-8-0.6-9.2 0.5c-0.7 0.7 0 1.6 1.7 2.3z" />
		</g>
		<g id="&lt;Group&gt;">
			<path id="&lt;Path&gt;" class="s15" d="m471.4 477c-1.3 1.7-6.8 2.7-12.2 2.2c-5.5-0.6-8.9-2.5-7.6-4.2c1.3-1.8 6.8-2.8 12.2-2.2c5.5 0.5 8.9 2.4 7.6 4.2z" />
			<path id="&lt;Path&gt;" class="s67" d="m470.4 476.3c-1.3 1.5-4.7 2.7-11.3 2.2c-4.9-0.4-7.4-1.9-7-3.8c0.1-0.8 0.6-1.9 1.4-2.7c2-2.3 11.4 0 15.8 0.5q1.3 1.9 1.4 3.1q0 0.4-0.3 0.7z" />
			<path id="&lt;Path&gt;" class="s68" d="m468.3 477.7c-1.9 0.7-4.8 1.2-9.2 0.8q-2-0.2-3.4-0.6c1.1-2.2 2.1-4.5 3-6.8c2.3 0.1 4.9 0.5 7.2 0.9q1.2 2.9 2.4 5.7z" />
			<path id="&lt;Path&gt;" class="s69" d="m469.2 473.6c-1.1 1.3-5.6 2-9.9 1.6c-4.4-0.5-7-1.9-5.8-3.2c1.1-1.3 5.6-2 9.9-1.6c4.4 0.5 7 1.9 5.8 3.2z" />
			<path id="&lt;Path&gt;" class="s70" d="m456.7 474.7c-2.7-0.6-4.1-1.7-3.2-2.7c1.1-1.3 5.6-2 9.9-1.6c4 0.4 6.4 1.6 6 2.8c-0.3-0.9-2.4-1.8-5.5-2.1c-4-0.4-8 0.3-9.1 1.4c-0.7 0.8 0.2 1.6 1.9 2.2z" />
		</g>
		<g id="&lt;Group&gt;">
			<path id="&lt;Path&gt;" class="s15" d="m272.2 430.6c-1.6 2.4-8.9 4.1-16.4 3.8c-7.4-0.4-12.1-2.7-10.5-5.2c1.7-2.5 9-4.2 16.4-3.8c7.5 0.4 12.2 2.7 10.5 5.2z" />
			<path id="&lt;Path&gt;" class="s71" d="m270.9 429.8c-1.7 2.1-6.2 4-15.2 3.7c-6.7-0.2-10.2-2-9.8-4.7c0.2-1.1 0.8-2.6 1.7-3.7c2.6-3.3 15.6-0.8 21.5-0.5q1.9 2.5 2.1 4.1q0.1 0.6-0.3 1.1z" />
			<path id="&lt;Path&gt;" class="s72" d="m268.1 431.8c-2.5 1.1-6.4 1.9-12.4 1.7q-2.7-0.1-4.6-0.5c1.2-3.2 2.4-6.3 3.5-9.6c3.1 0.1 6.8 0.5 9.9 0.8q1.7 3.8 3.6 7.6z" />
			<path id="&lt;Path&gt;" class="s73" d="m269.1 426.1c-1.5 1.8-7.4 3.1-13.4 2.9c-5.9-0.3-9.5-2-8.1-3.8c1.5-1.9 7.4-3.2 13.4-2.9c5.9 0.2 9.5 1.9 8.1 3.8z" />
			<path id="&lt;Path&gt;" class="s74" d="m252.2 428.5c-3.7-0.6-5.7-2-4.6-3.4c1.5-1.9 7.5-3.1 13.4-2.8c5.4 0.2 8.8 1.7 8.3 3.3c-0.4-1.2-3.3-2.2-7.6-2.4c-5.4-0.3-10.9 0.8-12.2 2.5c-0.9 1.1 0.3 2.2 2.7 2.8z" />
		</g>
		<g id="&lt;Group&gt;">
			<path id="&lt;Path&gt;" class="s15" d="m249.7 477.3c-1.5 1.9-7.6 3-13.7 2.3c-6.1-0.6-9.8-2.7-8.4-4.7c1.5-1.9 7.6-3 13.7-2.4c6.1 0.7 9.8 2.8 8.4 4.8z" />
			<path id="&lt;Path&gt;" class="s71" d="m248.6 476.6c-1.5 1.6-5.3 3-12.6 2.3c-5.5-0.5-8.3-2.1-7.9-4.3c0.2-0.8 0.8-2 1.6-3c2.3-2.5 12.8 0.1 17.7 0.7q1.4 2.1 1.5 3.4q0 0.5-0.3 0.9z" />
			<path id="&lt;Path&gt;" class="s72" d="m246.3 478c-2.2 0.9-5.4 1.3-10.3 0.9q-2.2-0.2-3.8-0.6c1.2-2.6 2.3-5.1 3.3-7.7c2.6 0.2 5.6 0.7 8.1 1.1q1.3 3.2 2.7 6.3z" />
			<path id="&lt;Path&gt;" class="s73" d="m247.3 473.4c-1.3 1.5-6.2 2.3-11.1 1.8c-4.8-0.5-7.7-2-6.5-3.5c1.3-1.5 6.2-2.3 11.1-1.8c4.8 0.5 7.7 2.1 6.5 3.5z" />
			<path id="&lt;Path&gt;" class="s74" d="m233.3 474.7c-3-0.7-4.6-1.9-3.6-3.1c1.3-1.4 6.3-2.2 11.1-1.7c4.4 0.5 7.2 1.9 6.7 3.2c-0.3-1.1-2.6-2-6.1-2.4c-4.5-0.5-9 0.2-10.2 1.5c-0.7 0.9 0.2 1.8 2.1 2.5z" />
		</g>
		<g id="&lt;Group&gt;">
			<path id="&lt;Path&gt;" class="s15" d="m271.4 446.1c0.1 0.8-1.6 1.5-3.8 1.7c-2.2 0.3-4.1-0.1-4.2-0.9c0-0.7 1.7-1.4 3.9-1.6c2.2-0.3 4 0.1 4.1 0.8z" />
			<g id="&lt;Group&gt;">
				<g id="&lt;Group&gt;">
					<path id="&lt;Path&gt;" class="s25" d="m270 446c0.1 0.6-0.9 1.1-2.1 1.2c-1.1 0.1-2.1-0.3-2.2-0.8l-21.4-256.2c0-0.6 0.9-1.1 2.1-1.2c1.2-0.1 2.2 0.3 2.2 0.8z" />
					<path id="&lt;Path&gt;" class="s26" d="m268 445.5c0.1 0.4-0.2 0.7-0.6 0.7c-0.4 0-0.7-0.2-0.8-0.6l-20.4-244.6c-0.1-0.4 0.2-0.8 0.6-0.8c0.4 0 0.7 0.3 0.8 0.6z" />
				</g>
				<g id="&lt;Group&gt;">
					<path id="&lt;Path&gt;" class="s43" d="m248.7 130.7l10.7 18l20.8 1.4c8.4 0.5 10.8 6.1 5.2 12.5l-13.8 15.7l5.1 20.3c2.1 8.2-2.5 12.1-10.3 8.7l-19.2-8.2l-17.7 11.1c-7.1 4.5-12.3 1.4-11.5-7l1.9-20.9l-16-13.3c-6.5-5.4-5.1-11.3 3.1-13.2l20.4-4.6l7.8-19.4c3.1-7.9 9.2-8.3 13.5-1.1z" />
					<path id="&lt;Path&gt;" class="s75" d="m242 186.3c-3.7 3.2-7.4 6.8-10.4 10.7c-1.5 1.9-2.5 5-5.2 5.6c-3.2 0.7-2.9-4.2-2.8-6.3c0.2-4.1 1.6-8.4 1-12.6c-0.8-4.8-4.3-6.1-7.9-8.6c-2.1-1.4-3.8-3-5.8-4.6c-1.6-1.4-5.6-2.7-5.8-5.2c-0.3-2.7 5.8-3.4 7.6-3.7c3.8-0.7 7.6-1.7 11.4-2.5c2.5-0.4 6.7-0.4 8.5-2.2c1.8-2.1 3.5-6.1 4.6-8.6c1.4-3.5 2-7.4 2.9-11c1-3.6 2.1-5.6 4.8-1.8c2.7 3.5 4.6 7.6 6.4 11.6c2 4.5 4.6 8 9.8 8c3 0 5.8 0.5 8.7 0.8c2.2 0.2 6 0 7.8 1.3c2.6 2-1.8 4.1-3.5 4.9c-3.6 1.7-7.1 3.6-10.6 5.7c-1.9 1.1-4.1 2.1-5.8 3.5c-1.6 1.3-2.3 3.1-3.7 4.6c-3.1 3.5-6.9 6.3-10.5 9.2q-0.8 0.6-1.5 1.2z" />
					<path id="&lt;Path&gt;" class="s76" d="m231.6 155.1c-1.4 1.1-3.3 1.7-5.5 1.8c-8 0.5-15.1 3.4-22.9 4.7c0-1.9 2.9-2.6 4.5-3c5.8-1.3 11.7-2.9 17.6-4c4.9-1 5.4-4.1 7.1-8.1q2.2-5.5 4.4-11.1q0.5-1.3 1-2.6c0.7-1.5 1.9-4.1 3.8-4.3c-0.3 1.5-1.4 3.2-2 4.7c-0.7 1.7-1.2 3.4-1.9 5.1c-1.5 4-2.1 7.9-3.2 12c-0.5 2.2-1.5 3.8-2.9 4.8z" />
					<path id="&lt;Path&gt;" class="s77" d="m247.2 194.8c1.8 0 3.6 0.7 5.5 1.9c6.6 4.5 14.1 6.4 21.1 10.1c-1.2 1.6-3.9 0.4-5.4-0.3c-5.5-2.5-11.1-4.7-16.5-7.4c-4.5-2.2-6.7 0-10.5 2.2q-5.2 3-10.3 6.1q-1.1 0.7-2.3 1.4c-1.5 0.9-4 2.2-5.6 1.2c1.1-1 3-1.6 4.4-2.5c1.5-0.9 3-2 4.6-2.9c3.6-2.3 6.5-5 9.8-7.7c1.7-1.4 3.5-2.1 5.2-2.1z" />
					<path id="&lt;Path&gt;" class="s76" d="m265.6 152.8c-1.7-0.1-5.1-0.1-6-1.9c-0.4-1.1 6.6-0.3 7.3-0.2c2.6 0.1 5.2 0.3 7.8 0.3c3.4-0.1 10.5-0.7 12.5 3.1c1.5 2.9-2.5 1.4-3.8 0.9c-3.1-1.2-5.9-1.1-9.1-1.4q-1.9-0.2-3.7-0.4q-2.5-0.2-5-0.4z" />
					<path id="&lt;Path&gt;" class="s76" d="m222.3 191.9q-0.1 1.9-0.2 3.7c-0.1 3.3-0.7 6.1 0 9.3c0.3 1.4 1.1 5.5-1.5 3.6c-3.4-2.6-1.7-9.5-1.1-12.8c0.4-2.6 0.5-5.2 0.8-7.8c0.1-0.7 0.4-7.8 1.4-7.2c1.7 1.1 1.2 4.5 1 6.2q-0.3 2.5-0.4 5z" />
					<path id="&lt;Path&gt;" class="s77" d="m279.5 166.9q-1.3 1.4-2.6 2.7c-2.2 2.4-4.5 4.2-6 7.1c-0.7 1.2-2.8 4.9-3.5 1.7c-0.9-4.2 4.9-8.3 7.5-10.5c2-1.6 3.8-3.5 5.7-5.3c0.5-0.5 5.4-5.7 5.7-4.5c0.6 1.9-2 4.1-3.3 5.3q-1.8 1.7-3.5 3.5z" />
				</g>
			</g>
		</g>
	</g>
</svg>